# This file uses centimeters as units for non-parametric coordinates.

g default
v -8.648582 2.320927 1.030252
v -8.380391 2.047359 1.035965
v -8.323599 2.349530 1.423006
v -8.574764 2.355457 1.146374
v -8.317094 2.099113 1.152168
v -8.386428 3.390993 1.035836
v -8.652119 3.114994 1.030176
v -8.322767 3.340770 1.152040
v -8.578176 3.085642 1.150132
v -8.326982 3.090351 1.422930
v -6.013646 1.990350 1.086382
v -5.746732 2.265165 1.092068
v -6.087914 2.297009 1.473278
v -6.068046 2.046277 1.202740
v -5.825116 2.290220 1.208203
v -5.796809 3.209076 1.091001
v -6.079114 3.468048 1.084987
v -6.134953 3.161748 1.472220
v -5.872982 3.170151 1.207126
v -6.143037 3.411767 1.201054
v -1.289355 1.929089 0.656182
v -1.442440 2.084867 0.672832
v -1.367002 1.892662 0.831055
v -1.511029 2.036252 0.844102
v -1.495393 1.891306 0.991693
v -4.242661 2.051867 0.986082
v -4.396060 1.896507 1.003704
v -4.122251 1.860350 1.285549
v -4.137673 2.005301 1.140562
v -4.282885 1.858232 1.157244
v -4.402735 0.610826 1.008322
v -4.246732 0.458009 0.991336
v -4.128508 0.655177 1.289877
v -4.289158 0.649974 1.161584
v -4.145521 0.509270 1.145944
v -1.470502 0.547632 0.680599
v -1.317307 0.703196 0.662999
v -1.521660 0.739331 0.998099
v -1.540912 0.593352 0.854416
v -1.393208 0.743341 0.837447
v -1.561265 6.345043 0.707475
v -1.426960 6.483873 0.694789
v -1.621553 6.389027 0.940582
v -1.495829 6.519322 0.928401
v -1.611609 6.517480 1.068685
v -1.446834 7.678955 0.696666
v -1.585302 7.813597 0.709745
v -1.630258 7.638888 1.070447
v -1.514455 7.640912 0.930466
v -1.644477 7.767341 0.942747
v -4.216043 7.771962 0.958229
v -4.351240 7.634007 0.970999
v -4.100422 7.599794 1.303763
v -4.112517 7.728280 1.175863
v -4.240404 7.597785 1.187942
v -4.351240 6.449177 0.970999
v -4.214151 6.313118 0.958050
v -4.100422 6.487529 1.303763
v -4.240404 6.485981 1.187942
v -4.112513 6.359048 1.175862
v 5.949539 5.209052 0.734637
v 6.222783 4.925273 0.787258
v 6.213347 5.238723 1.192934
v 6.004768 5.244871 0.866254
v 6.267239 4.978959 0.917122
v 6.216633 6.319055 0.786073
v 5.945937 6.032754 0.733944
v 6.261459 6.266957 0.916002
v 6.000624 6.002307 0.869502
v 6.209901 6.007192 1.192266
v 8.647362 4.866138 1.173936
v 8.919304 5.151209 1.226306
v 8.490683 5.184241 1.634293
v 8.558187 4.924151 1.361119
v 8.805643 5.177198 1.409077
v 8.868282 6.130348 1.216480
v 8.580660 6.398985 1.161090
v 8.442767 6.081254 1.625006
v 8.756886 6.089970 1.399628
v 8.481798 6.340603 1.346315
v -9.286526 0.000000 0.813350
v -9.286526 0.203312 1.016662
v -9.489838 0.203312 0.813350
v 9.489838 0.203312 1.130752
v 9.286526 0.203312 1.334064
v 9.286526 0.000000 1.130752
v -9.489838 9.111754 0.813350
v -9.286526 9.111754 1.016662
v -9.286526 9.315066 0.813350
v 9.286526 9.315066 1.130752
v 9.286526 9.111754 1.334064
v 9.489838 9.111754 1.130752
v -9.489838 9.111754 -0.813350
v -9.286526 9.315066 -0.813350
v -9.286526 9.111754 -1.016662
v 9.286526 9.111754 -0.699260
v 9.286526 9.315066 -0.495948
v 9.489838 9.111754 -0.495948
v -9.489838 0.203312 -0.813350
v -9.286526 0.203312 -1.016662
v -9.286526 0.000000 -0.813350
v 9.286526 0.000000 -0.495948
v 9.286526 0.203312 -0.699260
v 9.489838 0.203312 -0.495948
v 0.000000 0.000000 0.324543
v 0.000000 0.203312 0.527855
v 0.000000 9.111754 0.527855
v 0.000000 9.315066 0.324543
v 0.000000 9.315066 -1.302157
v 0.000000 9.111754 -1.505469
v 0.000000 0.203312 -1.505469
v 0.000000 0.000000 -1.302157
v -4.643263 0.000000 0.912262
v -4.643263 0.203312 1.115574
v -4.643263 9.111754 1.115574
v -4.643263 9.315066 0.912262
v -4.643263 9.315066 -0.714438
v -4.643263 9.111754 -0.917750
v -4.643263 0.203312 -0.917750
v -4.643263 0.000000 -0.714438
v 7.429221 0.203312 0.918900
v 7.429221 0.000000 0.715588
v 7.429221 0.000000 -0.911111
v 7.429221 0.203312 -1.114423
v 7.429221 9.111754 -1.114423
v 7.429221 9.315066 -0.911111
v 7.429221 9.315066 0.715588
v 7.429221 9.111754 0.918900
v -8.648582 2.320927 1.030252
v -8.709932 1.872719 1.028945
v -8.380391 2.047359 1.035965
v -8.323599 2.349530 1.423006
v -8.574764 2.355457 1.146374
v -8.317094 2.099113 1.152168
v -8.386428 3.390993 1.035836
v -8.674352 3.572492 1.029703
v -8.652119 3.114994 1.030176
v -8.322767 3.340770 1.152040
v -8.578176 3.085642 1.150132
v -8.326982 3.090351 1.422930
v -6.013646 1.990350 1.086382
v -5.631863 1.820131 1.094515
v -5.746732 2.265165 1.092068
v -6.087914 2.297009 1.473278
v -6.068046 2.046277 1.202740
v -5.825116 2.290220 1.208203
v -5.796809 3.209076 1.091001
v -5.772148 3.664585 1.091526
v -6.079114 3.468048 1.084987
v -6.134953 3.161748 1.472220
v -5.872982 3.170151 1.207126
v -6.143037 3.411767 1.201054
v -1.302390 7.715426 0.692704
v -1.428256 6.365926 0.708636
v -4.294243 6.268420 1.071397
v -4.160974 7.681359 1.054528
v 0.000000 6.325496 0.527855
v 3.012109 6.147861 0.686401
v 3.111325 6.346118 0.691623
v 2.939045 6.361897 0.682555
v 2.879936 6.289123 0.679444
v 2.918347 6.117527 0.827533
v 2.794302 6.247805 0.818693
v 2.783233 6.119383 0.949070
v 0.393322 6.326578 0.548558
v 0.246764 6.447868 0.540844
v 0.138223 6.327170 0.535130
v 0.253432 6.192976 0.541194
v 0.450567 6.154519 0.826288
v 0.461446 6.282943 0.698212
v 0.329023 6.156470 0.691241
v 0.216775 5.057309 0.539265
v 0.207920 4.821159 0.538799
v 0.351610 4.918593 0.546362
v 0.416206 5.089967 0.824479
v 0.294574 5.089192 0.689428
v 0.418720 4.961472 0.695963
v 2.818280 4.931731 0.676198
v 2.900116 4.850360 0.680506
v 3.020923 4.865261 0.686865
v 3.047957 4.929705 0.688288
v 2.957994 5.065519 0.683552
v 2.732380 5.102303 0.946393
v 2.732906 4.973797 0.817773
v 2.867612 5.102791 0.824863
v 4.630702 4.890428 0.771597
v 4.397079 4.891519 0.759300
v 4.495985 4.751597 0.764506
v 4.700629 4.846444 1.001996
v 4.574508 4.716148 0.995053
v 4.696019 4.717990 1.130402
v 4.515920 3.556515 0.765556
v 4.428922 3.505913 0.760977
v 4.417124 3.347763 0.760356
v 4.654812 3.421874 0.772867
v 4.714725 3.596582 1.131387
v 4.593203 3.594559 0.996342
v 4.723623 3.468130 1.003206
v 7.293610 3.463509 0.911762
v 7.429221 3.229711 0.918900
v 7.545571 3.261280 0.944908
v 7.429221 3.601464 0.918900
v 7.192454 3.635677 1.261805
v 7.199221 3.507191 1.133512
v 7.327499 3.637686 1.140264
v 7.429221 4.786294 0.918900
v 7.542440 5.179284 0.944208
v 7.429221 5.203857 0.918900
v 7.291712 4.922352 0.911663
v 7.192454 4.747941 1.261805
v 7.327499 4.749490 1.140264
v 7.199217 4.876423 1.133512
v 4.530898 5.578724 -1.250554
v 4.803308 5.676039 -1.234550
v 4.965716 5.298593 -1.666941
v 4.689170 5.292666 -1.371200
v 4.946508 5.549010 -1.356539
v 4.813913 4.177892 -1.233523
v 4.537399 4.456070 -1.249928
v 4.940844 4.307353 -1.356862
v 4.686127 4.562481 -1.375782
v 4.962337 4.557772 -1.667134
v 7.235841 5.657773 -1.090957
v 7.502382 5.382958 -1.075409
v 7.198525 5.351114 -1.539739
v 7.192664 5.601846 -1.228577
v 7.435281 5.357903 -1.214755
v 7.452374 4.439047 -1.078326
v 7.170465 4.180076 -1.094771
v 7.151546 4.486375 -1.542415
v 7.387477 4.477973 -1.217478
v 7.117769 4.236357 -1.232843
v 1.751369 4.313294 -1.394250
v 1.597387 4.161062 -1.395592
v 1.656715 4.348892 -1.560534
v 1.512104 4.208571 -1.559191
v 1.512983 4.350217 -1.707605
v -1.209043 4.193311 -1.318105
v -1.363434 4.345135 -1.320383
v -1.130076 4.380470 -1.738738
v -1.131002 4.238816 -1.592937
v -1.277153 4.382538 -1.595093
v -1.370535 5.601558 -1.324314
v -1.213617 5.686381 -1.322928
v -1.136733 5.558217 -1.742423
v -1.283827 5.563301 -1.598787
v -1.139347 5.700803 -1.597511
v 1.568691 5.663314 -1.400530
v 1.722877 5.511291 -1.398253
v 1.486209 5.475978 -1.711366
v 1.481343 5.618635 -1.566482
v 1.630003 5.472058 -1.564287
v 4.400093 2.797293 -1.207311
v 4.534739 2.658463 -1.198955
v 4.332334 2.753309 -1.438357
v 4.458385 2.623013 -1.430229
v 4.338150 2.624856 -1.566713
v 4.514814 1.463381 -1.200192
v 4.375997 1.328739 -1.208807
v 4.319453 1.503448 -1.567874
v 4.439702 1.501424 -1.431693
v 4.309352 1.374995 -1.439783
v 1.738619 1.370374 -1.372483
v 1.603081 1.508329 -1.380895
v 1.843059 1.542542 -1.721560
v 1.835087 1.414056 -1.593336
v 1.706878 1.544551 -1.601293
v 1.603081 2.693159 -1.380895
v 1.740516 2.829217 -1.372365
v 1.843059 2.654807 -1.721560
v 1.706878 2.656355 -1.601293
v 1.835092 2.783288 -1.593336
vt 1.750700 0.973746
vt 1.727781 0.997475
vt 1.721872 0.989434
vt 1.745971 0.967116
vt 1.716853 0.963563
vt 1.532425 0.993458
vt 1.537556 0.968278
vt 1.717478 0.911596
vt 1.744982 0.908463
vt 1.728297 0.880933
vt 1.751003 0.904872
vt 1.721958 0.886506
vt 1.541247 0.907497
vt 1.537786 0.881495
vt 1.525519 1.002419
vt 1.502708 0.978583
vt 1.509902 0.972677
vt 1.512244 0.902532
vt 1.506988 0.896711
vt 1.531114 0.874249
vt 0.754176 0.641811
vt 0.765472 0.629559
vt 0.779061 0.635847
vt 0.768382 0.646700
vt 0.781119 0.649025
vt 0.785084 0.725209
vt 0.772076 0.727827
vt 0.958200 0.632627
vt 0.956827 0.645942
vt 0.977978 0.626310
vt 0.989933 0.637898
vt 0.969814 0.643124
vt 0.972476 0.728173
vt 0.959732 0.725638
vt 0.993066 0.736402
vt 0.981543 0.748434
vt 0.961691 0.738715
vt 0.783817 0.738521
vt 0.770741 0.747294
vt 0.758801 0.735690
vt 0.615851 0.750877
vt 0.627364 0.762918
vt 0.609139 0.769493
vt 0.598763 0.759328
vt 0.590022 0.774906
vt 0.420761 0.773344
vt 0.412427 0.757493
vt 0.608200 0.856496
vt 0.589373 0.850551
vt 0.625660 0.866575
vt 0.613790 0.878254
vt 0.597527 0.866260
vt 0.412482 0.864130
vt 0.421063 0.848432
vt 0.388278 0.874642
vt 0.376689 0.862677
vt 0.401959 0.853828
vt 0.401867 0.767359
vt 0.376689 0.759909
vt 0.388440 0.748108
vt 1.750700 0.973746
vt 1.727781 0.997475
vt 1.721872 0.989434
vt 1.745971 0.967116
vt 1.716853 0.963563
vt 1.532425 0.993458
vt 1.537556 0.968278
vt 1.717478 0.911596
vt 1.744982 0.908463
vt 1.728297 0.880933
vt 1.751003 0.904872
vt 1.721958 0.886506
vt 1.541247 0.907497
vt 1.537786 0.881495
vt 1.525519 1.002419
vt 1.502708 0.978583
vt 1.509902 0.972677
vt 1.512244 0.902532
vt 1.506988 0.896711
vt 1.531114 0.874249
vt 1.805220 -0.775950
vt 1.822595 -0.775950
vt 1.822595 -0.634856
vt 1.805220 -0.634856
vt 1.805219 1.157421
vt 1.805219 1.175056
vt 1.408405 1.175056
vt 1.408405 1.157421
vt 1.840333 1.157422
vt 1.805220 0.384734
vt 1.840334 0.384734
vt 0.200588 -0.775950
vt 0.217963 -0.775950
vt 0.217963 -0.634856
vt 0.200588 -0.634856
vt 0.217963 1.157421
vt 0.180531 1.157422
vt 0.180531 0.384733
vt 0.217963 0.384733
vt 1.822595 0.349464
vt 1.805220 0.349464
vt 1.805220 0.208370
vt 1.822595 0.208370
vt 1.408406 0.384734
vt 1.408406 0.349464
vt 0.217963 0.349464
vt 0.200588 0.349464
vt 0.200588 0.208370
vt 0.217963 0.208370
vt 1.822595 0.173101
vt 1.805220 0.173101
vt 1.805220 -0.599586
vt 1.822595 -0.599586
vt 1.408406 0.208370
vt 1.408406 0.173101
vt 0.217963 0.173101
vt 0.200588 0.173101
vt 0.200588 -0.599587
vt 0.217963 -0.599587
vt 1.408406 -0.599586
vt 1.408406 -0.634856
vt 1.408406 -0.775950
vt 0.020057 1.157421
vt 0.020057 0.384733
vt 1.982261 1.157422
vt 1.982262 0.384734
vt 0.217963 1.175055
vt 0.376689 1.157421
vt 0.376689 1.175055
vt 0.376689 0.384733
vt 0.376689 0.723691
vt 0.367013 0.725822
vt 0.376689 0.349464
vt 0.376689 0.208370
vt 0.376689 0.173101
vt 0.376689 -0.599587
vt 0.376689 -0.634856
vt 0.376689 -0.775950
vt 1.011591 1.175056
vt 1.011591 1.157421
vt 1.133650 0.622897
vt 1.011591 0.626404
vt 1.011592 0.384734
vt 1.011592 0.349464
vt 1.011592 0.208370
vt 1.011591 0.173101
vt 1.011592 -0.599586
vt 1.011592 -0.634856
vt 1.011592 -0.775950
vt 0.760420 0.623247
vt 0.745697 0.624615
vt 1.755944 1.012622
vt 1.750700 0.973746
vt 1.492891 1.017184
vt 1.525519 1.002419
vt 1.727781 0.997475
vt 1.506988 0.896711
vt 1.504880 0.857202
vt 1.531114 0.874249
vt 1.752903 0.865188
vt 1.728297 0.880933
vt 1.750700 0.973746
vt 1.727781 0.997475
vt 1.721872 0.989434
vt 1.745971 0.967116
vt 1.716853 0.963563
vt 1.532425 0.993458
vt 1.537556 0.968278
vt 1.717478 0.911596
vt 1.744982 0.908463
vt 1.728297 0.880933
vt 1.751003 0.904872
vt 1.721958 0.886506
vt 1.541247 0.907497
vt 1.537786 0.881495
vt 1.525519 1.002419
vt 1.502708 0.978583
vt 1.509902 0.972677
vt 1.512244 0.902532
vt 1.506988 0.896711
vt 1.531114 0.874249
vt 1.751003 0.904872
vt 1.502708 0.978583
vt 1.122894 0.505846
vt 1.367189 0.508801
vt 1.378578 0.631355
vt 0.990503 0.615790
vt 0.758801 0.735690
vt 0.635816 0.750782
vt 0.615851 0.750877
vt 0.999779 0.626259
vt 0.376689 0.759909
vt 0.366746 0.892183
vt 0.376689 0.894921
vt 0.634103 0.884682
vt 0.388278 0.874642
vt 0.613790 0.878254
vt 0.763747 0.754352
vt 0.993822 0.756885
vt 0.633095 0.870965
vt 0.753423 0.753060
vt 0.989933 0.637898
vt 0.993066 0.736402
vt 0.625660 0.866575
vt 0.627364 0.762918
vt 0.754176 0.641811
vt 0.765472 0.629559
vt 0.779061 0.635847
vt 0.768382 0.646700
vt 0.781119 0.649025
vt 0.785084 0.725209
vt 0.772076 0.727827
vt 0.958200 0.632627
vt 0.956827 0.645942
vt 0.977978 0.626310
vt 0.989933 0.637898
vt 0.969814 0.643124
vt 0.972476 0.728173
vt 0.959732 0.725638
vt 0.993066 0.736402
vt 0.981543 0.748434
vt 0.961691 0.738715
vt 0.783817 0.738521
vt 0.770741 0.747294
vt 0.758801 0.735690
vt 0.615851 0.750877
vt 0.627364 0.762918
vt 0.609139 0.769493
vt 0.598763 0.759328
vt 0.590022 0.774906
vt 0.420761 0.773344
vt 0.412427 0.757493
vt 0.608200 0.856496
vt 0.589373 0.850551
vt 0.625660 0.866575
vt 0.613790 0.878254
vt 0.597527 0.866260
vt 0.412482 0.864130
vt 0.421063 0.848432
vt 0.388278 0.874642
vt 0.376689 0.862677
vt 0.401959 0.853828
vt 0.401867 0.767359
vt 0.376689 0.759909
vt 0.388440 0.748108
vt 0.754176 0.641811
vt 0.765472 0.629559
vt 0.977978 0.626310
vt 0.981543 0.748434
vt 0.751112 0.747470
vt 0.376689 0.862677
vt 0.388440 0.748108
vt 0.770741 0.747294
vt 1.750700 0.973746
vt 1.727781 0.997475
vt 1.721872 0.989434
vt 1.745971 0.967116
vt 1.716853 0.963563
vt 1.532425 0.993458
vt 1.537556 0.968278
vt 1.717478 0.911596
vt 1.744982 0.908463
vt 1.728297 0.880933
vt 1.751003 0.904872
vt 1.721958 0.886506
vt 1.541247 0.907497
vt 1.537786 0.881495
vt 1.525519 1.002419
vt 1.502708 0.978583
vt 1.509902 0.972677
vt 1.512244 0.902532
vt 1.506988 0.896711
vt 1.531114 0.874249
vt 0.754176 0.641811
vt 0.765472 0.629559
vt 0.779061 0.635847
vt 0.768382 0.646700
vt 0.781119 0.649025
vt 0.785084 0.725209
vt 0.772076 0.727827
vt 0.958200 0.632627
vt 0.956827 0.645942
vt 0.977978 0.626310
vt 0.989933 0.637898
vt 0.969814 0.643124
vt 0.972476 0.728173
vt 0.959732 0.725638
vt 0.993066 0.736402
vt 0.981543 0.748434
vt 0.961691 0.738715
vt 0.783817 0.738521
vt 0.770741 0.747294
vt 0.758801 0.735690
vt 0.615851 0.750877
vt 0.627364 0.762918
vt 0.609139 0.769493
vt 0.598763 0.759328
vt 0.590022 0.774906
vt 0.420761 0.773344
vt 0.412427 0.757493
vt 0.608200 0.856496
vt 0.589373 0.850551
vt 0.625660 0.866575
vt 0.613790 0.878254
vt 0.597527 0.866260
vt 0.412482 0.864130
vt 0.421063 0.848432
vt 0.388278 0.874642
vt 0.376689 0.862677
vt 0.401959 0.853828
vt 0.401867 0.767359
vt 0.376689 0.759909
vt 0.388440 0.748108
vn -0.592479 -0.575715 0.563491
vn -0.592479 -0.575715 0.563491
vn -0.592479 -0.575715 0.563491
vn -0.592479 -0.575715 0.563491
vn -0.032497 -0.734247 0.678104
vn -0.032497 -0.734247 0.678104
vn -0.032497 -0.734247 0.678104
vn -0.032497 -0.734247 0.678104
vn -0.738010 -0.005099 0.674770
vn -0.738010 -0.005099 0.674770
vn -0.738010 -0.005099 0.674770
vn -0.738010 -0.005099 0.674771
vn -0.601554 0.582406 0.546751
vn -0.601554 0.582406 0.546751
vn -0.601554 0.582406 0.546751
vn -0.601554 0.582406 0.546751
vn -0.039154 0.734048 0.677968
vn -0.039154 0.734048 0.677968
vn -0.039154 0.734048 0.677968
vn -0.039154 0.734048 0.677968
vn 0.592114 -0.593652 0.544957
vn 0.592114 -0.593652 0.544957
vn 0.592114 -0.593652 0.544957
vn 0.592114 -0.593652 0.544957
vn 0.710102 0.039487 0.702991
vn 0.710102 0.039487 0.702991
vn 0.710102 0.039487 0.702991
vn 0.710102 0.039487 0.702991
vn 0.541360 0.611288 0.577284
vn 0.541360 0.611288 0.577284
vn 0.541360 0.611288 0.577284
vn 0.541360 0.611288 0.577284
vn -0.022480 0.000000 0.999747
vn -0.022480 0.000000 0.999747
vn -0.022480 0.000000 0.999747
vn -0.022480 0.000000 0.999747
vn -0.847593 -0.005145 0.530622
vn -0.847593 -0.005145 0.530622
vn -0.847593 -0.005145 0.530622
vn -0.847593 -0.005145 0.530622
vn -0.030784 -0.906565 0.420941
vn -0.030784 -0.906565 0.420941
vn -0.030784 -0.906565 0.420941
vn -0.030784 -0.906565 0.420941
vn 0.830417 0.045247 0.555301
vn 0.830418 0.045247 0.555301
vn 0.830418 0.045247 0.555301
vn 0.830418 0.045247 0.555301
vn -0.039081 0.908317 0.416452
vn -0.039081 0.908317 0.416452
vn -0.039081 0.908317 0.416452
vn -0.039081 0.908317 0.416452
vn -0.602263 -0.593303 0.534108
vn -0.602263 -0.593303 0.534108
vn -0.602263 -0.593303 0.534108
vn -0.597052 0.593674 0.539519
vn -0.597052 0.593674 0.539519
vn -0.597052 0.593674 0.539519
vn 0.570459 -0.581089 0.580442
vn 0.570459 -0.581089 0.580442
vn 0.570459 -0.581089 0.580442
vn 0.545786 0.624082 0.559141
vn 0.545786 0.624082 0.559141
vn 0.545786 0.624082 0.559141
vn 0.661663 0.613983 0.430380
vn 0.661663 0.613983 0.430380
vn 0.661663 0.613983 0.430380
vn 0.661663 0.613983 0.430380
vn 0.781127 -0.014340 0.624207
vn 0.781127 -0.014340 0.624207
vn 0.781127 -0.014340 0.624207
vn 0.781127 -0.014340 0.624207
vn 0.070077 0.712316 0.698352
vn 0.070077 0.712316 0.698352
vn 0.070077 0.712316 0.698352
vn 0.070077 0.712316 0.698352
vn -0.555678 0.612443 0.562260
vn -0.555678 0.612442 0.562260
vn -0.555678 0.612442 0.562260
vn -0.555678 0.612442 0.562260
vn -0.624130 0.006046 0.781297
vn -0.624130 0.006046 0.781297
vn -0.624130 0.006046 0.781297
vn -0.624130 0.006046 0.781297
vn -0.546163 -0.620139 0.563147
vn -0.546163 -0.620139 0.563147
vn -0.546163 -0.620139 0.563147
vn -0.546163 -0.620139 0.563147
vn 0.101354 -0.704624 0.702305
vn 0.101354 -0.704624 0.702305
vn 0.101354 -0.704624 0.702305
vn 0.101354 -0.704624 0.702305
vn 0.667066 -0.608233 0.430204
vn 0.667066 -0.608233 0.430204
vn 0.667066 -0.608233 0.430204
vn 0.667066 -0.608233 0.430204
vn 0.111137 0.002992 0.993801
vn 0.111137 0.002992 0.993801
vn 0.111137 0.002992 0.993801
vn 0.111137 0.002992 0.993801
vn 0.019957 0.960272 0.278351
vn 0.019957 0.960272 0.278351
vn 0.019957 0.960272 0.278351
vn 0.019957 0.960272 0.278351
vn -0.804186 0.006309 0.594344
vn -0.804186 0.006309 0.594344
vn -0.804186 0.006309 0.594344
vn -0.804186 0.006309 0.594344
vn 0.061990 -0.958780 0.277306
vn 0.061990 -0.958780 0.277306
vn 0.061990 -0.958780 0.277306
vn 0.061990 -0.958780 0.277306
vn 0.915233 -0.018630 0.402495
vn 0.915233 -0.018630 0.402495
vn 0.915233 -0.018630 0.402495
vn 0.915233 -0.018630 0.402495
vn 0.630468 0.586153 0.508856
vn 0.630468 0.586153 0.508856
vn 0.630468 0.586153 0.508856
vn -0.513533 0.578892 0.633379
vn -0.513533 0.578892 0.633379
vn -0.513533 0.578892 0.633379
vn -0.497121 -0.579283 0.645990
vn -0.497121 -0.579283 0.645990
vn -0.497121 -0.579283 0.645990
vn 0.644380 -0.577905 0.500800
vn 0.644380 -0.577905 0.500800
vn 0.644380 -0.577905 0.500801
vn 0.699069 -0.647385 0.303637
vn 0.699069 -0.647385 0.303637
vn 0.699069 -0.647385 0.303637
vn 0.699069 -0.647385 0.303637
vn 0.074927 -0.707054 0.703179
vn 0.074927 -0.707054 0.703179
vn 0.074927 -0.707054 0.703179
vn 0.074927 -0.707054 0.703179
vn 0.770749 0.011722 0.637031
vn 0.770749 0.011722 0.637031
vn 0.770749 0.011722 0.637031
vn 0.770749 0.011722 0.637031
vn 0.678567 0.668227 0.304991
vn 0.678567 0.668227 0.304991
vn 0.678567 0.668227 0.304991
vn 0.678567 0.668227 0.304991
vn 0.055402 0.707022 0.705018
vn 0.055402 0.707022 0.705018
vn 0.055402 0.707022 0.705018
vn 0.055402 0.707022 0.705018
vn -0.625228 0.652381 0.428355
vn -0.625228 0.652381 0.428355
vn -0.625228 0.652381 0.428355
vn -0.625228 0.652381 0.428355
vn -0.637483 0.000000 0.770465
vn -0.637483 0.000000 0.770465
vn -0.637483 0.000000 0.770465
vn -0.637483 0.000000 0.770465
vn -0.616311 -0.661619 0.427108
vn -0.616311 -0.661619 0.427108
vn -0.616311 -0.661619 0.427108
vn -0.616311 -0.661619 0.427108
vn 0.094035 -0.000000 0.995569
vn 0.094035 -0.000000 0.995569
vn 0.094035 -0.000000 0.995569
vn 0.094035 -0.000000 0.995569
vn 0.959772 0.015473 0.280353
vn 0.959772 0.015473 0.280353
vn 0.959772 0.015473 0.280353
vn 0.959772 0.015473 0.280353
vn 0.002939 0.980711 0.195444
vn 0.002939 0.980711 0.195444
vn 0.002939 0.980710 0.195444
vn 0.002939 0.980710 0.195444
vn -0.890511 0.000000 0.454962
vn -0.890511 0.000000 0.454962
vn -0.890511 0.000000 0.454962
vn -0.890511 0.000000 0.454962
vn 0.030015 -0.980776 0.192813
vn 0.030015 -0.980776 0.192813
vn 0.030015 -0.980776 0.192813
vn 0.030015 -0.980776 0.192813
vn 0.638608 -0.567622 0.519601
vn 0.638608 -0.567622 0.519601
vn 0.638608 -0.567622 0.519601
vn 0.619754 0.586743 0.521189
vn 0.619754 0.586743 0.521189
vn 0.619754 0.586742 0.521189
vn -0.526770 0.574255 0.626694
vn -0.526770 0.574255 0.626694
vn -0.526770 0.574255 0.626694
vn -0.515666 -0.579609 0.630985
vn -0.515666 -0.579609 0.630985
vn -0.515666 -0.579609 0.630985
vn -0.678793 -0.575714 0.455843
vn -0.678793 -0.575714 0.455843
vn -0.678793 -0.575714 0.455843
vn -0.678793 -0.575714 0.455843
vn -0.146056 -0.734246 0.662986
vn -0.146056 -0.734246 0.662986
vn -0.146056 -0.734246 0.662986
vn -0.146056 -0.734246 0.662986
vn -0.840962 -0.005098 0.541070
vn -0.840962 -0.005098 0.541070
vn -0.840962 -0.005098 0.541070
vn -0.840962 -0.005098 0.541070
vn -0.684926 0.582407 0.437811
vn -0.684926 0.582408 0.437811
vn -0.684926 0.582407 0.437811
vn -0.684926 0.582408 0.437811
vn -0.152594 0.734047 0.661732
vn -0.152594 0.734047 0.661732
vn -0.152594 0.734047 0.661732
vn -0.152594 0.734047 0.661732
vn 0.588791 -0.656276 0.471834
vn 0.588791 -0.656276 0.471834
vn 0.588791 -0.656276 0.471834
vn 0.588791 -0.656276 0.471834
vn 0.581785 0.039487 0.812383
vn 0.581785 0.039487 0.812383
vn 0.581785 0.039487 0.812383
vn 0.581785 0.039487 0.812383
vn 0.537797 0.685520 0.490750
vn 0.537797 0.685520 0.490750
vn 0.537797 0.685520 0.490750
vn 0.537797 0.685520 0.490750
vn -0.190265 0.000000 0.981733
vn -0.190265 0.000000 0.981733
vn -0.190265 0.000000 0.981733
vn -0.190265 0.000000 0.981733
vn -0.924748 -0.005146 0.380545
vn -0.924748 -0.005146 0.380545
vn -0.924748 -0.005146 0.380545
vn -0.924748 -0.005146 0.380545
vn -0.079395 -0.943656 0.321262
vn -0.079395 -0.943656 0.321262
vn -0.079395 -0.943656 0.321262
vn -0.079395 -0.943656 0.321262
vn 0.849833 0.050165 0.524660
vn 0.849833 0.050165 0.524660
vn 0.849833 0.050165 0.524660
vn 0.849833 0.050165 0.524660
vn -0.087195 0.944673 0.316211
vn -0.087195 0.944673 0.316211
vn -0.087195 0.944673 0.316211
vn -0.087195 0.944673 0.316211
vn -0.683496 -0.593305 0.425233
vn -0.683496 -0.593305 0.425234
vn -0.683496 -0.593305 0.425234
vn -0.679270 0.593671 0.431448
vn -0.679270 0.593671 0.431448
vn -0.679270 0.593671 0.431448
vn 0.464738 -0.581088 0.668098
vn 0.464738 -0.581088 0.668098
vn 0.464738 -0.581088 0.668098
vn 0.443997 0.624085 0.642950
vn 0.443997 0.624085 0.642950
vn 0.443997 0.624085 0.642950
vn -0.707107 -0.707107 0.000000
vn -0.707107 -0.707107 0.000000
vn -0.707107 -0.707107 0.000000
vn -0.707107 -0.707107 0.000000
vn -0.015061 -0.707027 0.707027
vn -0.015061 -0.707027 0.707027
vn 0.038381 -0.706586 0.706586
vn 0.035925 -0.706650 0.706650
vn -0.707107 0.000000 0.707106
vn -0.707107 0.000000 0.707106
vn -0.707107 0.000000 0.707106
vn -0.707107 0.000000 0.707106
vn 0.707107 -0.707107 0.000000
vn 0.707107 -0.707107 0.000000
vn 0.707107 -0.707107 0.000000
vn 0.707107 -0.707107 0.000000
vn 0.707107 0.000000 0.707107
vn 0.707107 0.000000 0.707107
vn 0.707107 0.000000 0.707107
vn 0.707107 0.000000 0.707107
vn -0.707107 0.707107 0.000000
vn -0.707107 0.707107 0.000000
vn -0.707107 0.707107 0.000000
vn -0.707107 0.707107 0.000000
vn -0.015061 0.707027 0.707026
vn -0.015061 0.707027 0.707026
vn 0.035925 0.706650 0.706650
vn 0.038381 0.706586 0.706586
vn 0.707107 0.707107 0.000000
vn 0.707107 0.707107 0.000000
vn 0.707107 0.707107 0.000000
vn 0.707107 0.707107 0.000000
vn -0.707107 0.000000 -0.707106
vn -0.707107 0.000000 -0.707106
vn -0.707107 0.000000 -0.707106
vn -0.707107 0.000000 -0.707106
vn 0.015061 0.707027 -0.707026
vn 0.015061 0.707027 -0.707026
vn -0.035925 0.706650 -0.706650
vn -0.038381 0.706586 -0.706586
vn 0.707107 0.000000 -0.707107
vn 0.707107 0.000000 -0.707107
vn 0.707107 0.000000 -0.707107
vn 0.707107 0.000000 -0.707107
vn 0.015061 -0.707027 -0.707027
vn 0.015061 -0.707027 -0.707027
vn -0.038381 -0.706586 -0.706586
vn -0.035925 -0.706650 -0.706650
vn 0.000000 1.000000 0.000000
vn 0.000000 1.000000 0.000000
vn 0.000000 1.000000 0.000000
vn 0.000000 1.000000 0.000000
vn 0.021297 0.000000 -0.999773
vn -0.052563 0.000000 -0.998618
vn -0.052563 0.000000 -0.998618
vn 0.021297 0.000000 -0.999773
vn 0.000000 -1.000000 0.000000
vn 0.000000 -1.000000 0.000000
vn 0.000000 -1.000000 0.000000
vn 0.000000 -1.000000 0.000000
vn 1.000000 0.000000 0.000000
vn 1.000000 0.000000 0.000000
vn 1.000000 0.000000 0.000000
vn 1.000000 0.000000 0.000000
vn -1.000000 0.000000 0.000000
vn -1.000000 0.000000 0.000000
vn -1.000000 0.000000 0.000000
vn -1.000000 0.000000 0.000000
vn -0.577350 -0.577351 0.577350
vn -0.577350 -0.577351 0.577350
vn -0.577350 -0.577351 0.577350
vn 0.577350 -0.577351 0.577350
vn 0.577350 -0.577351 0.577350
vn 0.577350 -0.577351 0.577350
vn -0.577351 0.577352 0.577348
vn -0.577351 0.577352 0.577348
vn -0.577351 0.577352 0.577348
vn 0.577351 0.577352 0.577348
vn 0.577351 0.577352 0.577349
vn 0.577351 0.577352 0.577348
vn -0.577351 0.577352 -0.577348
vn -0.577351 0.577352 -0.577348
vn -0.577351 0.577352 -0.577348
vn 0.577351 0.577352 -0.577348
vn 0.577351 0.577352 -0.577348
vn 0.577351 0.577352 -0.577348
vn -0.577350 -0.577351 -0.577350
vn -0.577350 -0.577351 -0.577350
vn -0.577350 -0.577351 -0.577350
vn 0.577350 -0.577351 -0.577350
vn 0.577350 -0.577351 -0.577350
vn 0.577350 -0.577351 -0.577350
vn -0.063620 -0.705674 0.705674
vn -0.058919 -0.705878 0.705878
vn -0.156121 -0.698436 0.698436
vn -0.156121 -0.698436 0.698436
vn -0.102798 0.000000 0.994702
vn -0.113994 0.000000 0.993481
vn -0.217222 0.000000 0.976122
vn -0.218146 0.000000 0.975916
vn -0.058919 0.705879 0.705877
vn -0.063620 0.705675 0.705673
vn -0.156121 0.698436 0.698437
vn -0.156121 0.698436 0.698437
vn 0.000000 1.000000 0.000000
vn 0.000000 1.000000 0.000000
vn 0.000000 1.000000 0.000000
vn 0.000000 1.000000 0.000000
vn 0.058919 0.705879 -0.705877
vn 0.063620 0.705675 -0.705673
vn 0.156121 0.698436 -0.698437
vn 0.156121 0.698436 -0.698437
vn 0.086490 0.000000 -0.996253
vn 0.086490 0.000000 -0.996253
vn 0.218146 0.000000 -0.975916
vn 0.218146 0.000000 -0.975916
vn 0.063620 -0.705674 -0.705674
vn 0.058919 -0.705878 -0.705878
vn 0.156121 -0.698436 -0.698436
vn 0.156121 -0.698436 -0.698436
vn 0.000000 -1.000000 0.000000
vn 0.000000 -1.000000 0.000000
vn 0.000000 -1.000000 0.000000
vn 0.000000 -1.000000 0.000000
vn 0.010494 -0.707068 0.707068
vn 0.012472 -0.707052 0.707052
vn 0.125573 0.000000 0.992085
vn 0.068580 -0.000000 0.997646
vn 0.101487 0.000000 0.994837
vn 0.012472 0.707053 0.707051
vn 0.010494 0.707069 0.707067
vn 0.000000 1.000000 0.000000
vn 0.000000 1.000000 0.000000
vn -0.012472 0.707053 -0.707051
vn -0.010494 0.707069 -0.707067
vn -0.016289 0.000000 -0.999867
vn -0.016289 0.000000 -0.999867
vn -0.010494 -0.707068 -0.707068
vn -0.012472 -0.707052 -0.707052
vn 0.000000 -1.000000 0.000000
vn 0.000000 -1.000000 0.000000
vn 0.015311 -0.000000 0.999883
vn -0.052563 0.000000 0.998618
vn -0.052563 0.000000 0.998618
vn -0.021297 -0.000000 0.999773
vn -0.021297 -0.000000 0.999773
vn -0.021297 -0.000000 0.999773
vn -0.021297 -0.000000 0.999773
vn -0.021298 -0.000000 0.999773
vn -0.021298 -0.000000 0.999773
vn -0.021297 0.000000 0.999773
vn 0.007910 -0.000000 0.999969
vn -0.021297 0.000000 0.999773
vn -0.021297 -0.000000 0.999773
vn -0.021297 0.000000 0.999773
vn -0.021297 -0.000000 0.999773
vn -0.592479 -0.575715 0.563491
vn -0.592479 -0.575715 0.563491
vn -0.592479 -0.575715 0.563491
vn -0.592479 -0.575715 0.563491
vn -0.032497 -0.734247 0.678104
vn -0.032497 -0.734247 0.678104
vn -0.032497 -0.734247 0.678104
vn -0.032497 -0.734247 0.678104
vn -0.738010 -0.005099 0.674770
vn -0.738010 -0.005099 0.674770
vn -0.738010 -0.005099 0.674770
vn -0.738010 -0.005099 0.674771
vn -0.601554 0.582406 0.546751
vn -0.601554 0.582406 0.546751
vn -0.601554 0.582406 0.546751
vn -0.601554 0.582406 0.546751
vn -0.039154 0.734048 0.677968
vn -0.039154 0.734048 0.677968
vn -0.039154 0.734048 0.677968
vn -0.039154 0.734048 0.677968
vn 0.592114 -0.593652 0.544957
vn 0.592114 -0.593652 0.544957
vn 0.592114 -0.593652 0.544957
vn 0.592114 -0.593652 0.544957
vn 0.710102 0.039487 0.702991
vn 0.710102 0.039487 0.702991
vn 0.710102 0.039487 0.702991
vn 0.710102 0.039487 0.702991
vn 0.541360 0.611288 0.577284
vn 0.541360 0.611288 0.577284
vn 0.541360 0.611288 0.577284
vn 0.541360 0.611288 0.577284
vn -0.022480 0.000000 0.999747
vn -0.022480 0.000000 0.999747
vn -0.022480 0.000000 0.999747
vn -0.022480 0.000000 0.999747
vn -0.847593 -0.005145 0.530622
vn -0.847593 -0.005145 0.530622
vn -0.847593 -0.005145 0.530622
vn -0.847593 -0.005145 0.530622
vn -0.030784 -0.906565 0.420941
vn -0.030784 -0.906565 0.420941
vn -0.030784 -0.906565 0.420941
vn -0.030784 -0.906565 0.420941
vn 0.830417 0.045247 0.555301
vn 0.830418 0.045247 0.555301
vn 0.830418 0.045247 0.555301
vn 0.830418 0.045247 0.555301
vn -0.039081 0.908317 0.416452
vn -0.039081 0.908317 0.416452
vn -0.039081 0.908317 0.416452
vn -0.039081 0.908317 0.416452
vn -0.602263 -0.593303 0.534108
vn -0.602263 -0.593303 0.534108
vn -0.602263 -0.593303 0.534108
vn -0.021297 -0.000000 0.999773
vn -0.597052 0.593674 0.539519
vn -0.597052 0.593674 0.539519
vn -0.597052 0.593674 0.539519
vn -0.021297 0.000000 0.999773
vn 0.570459 -0.581089 0.580442
vn 0.570459 -0.581089 0.580442
vn 0.570459 -0.581089 0.580442
vn 0.545786 0.624082 0.559141
vn 0.545786 0.624082 0.559141
vn 0.545786 0.624082 0.559141
vn 0.125573 0.000000 0.992084
vn 0.125573 0.000000 0.992084
vn 0.125573 0.000000 0.992084
vn 0.095173 -0.000000 0.995461
vn -0.052563 0.000000 0.998618
vn -0.052563 -0.000000 0.998618
vn -0.052564 0.000000 0.998618
vn -0.052564 0.000001 0.998618
vn -0.052563 -0.000000 0.998618
vn -0.217955 0.000000 0.975959
vn -0.218146 -0.000000 0.975916
vn -0.217145 0.000000 0.976139
vn -0.081869 -0.000000 0.996643
vn -0.079155 -0.000000 0.996862
vn -0.052563 -0.000000 0.998618
vn -0.059355 -0.000000 0.998237
vn -0.052563 -0.000000 0.998618
vn -0.052563 0.000000 0.998618
vn -0.052563 0.000000 0.998618
vn -0.052564 0.000000 0.998618
vn -0.052564 0.000000 0.998618
vn -0.052563 -0.000000 0.998618
vn -0.052559 -0.000000 0.998618
vn -0.052564 0.000000 0.998618
vn -0.052564 0.000000 0.998618
vn 0.598587 0.595952 0.535289
vn 0.598587 0.595952 0.535289
vn 0.598587 0.595952 0.535289
vn 0.598587 0.595952 0.535289
vn 0.668078 -0.035359 0.743251
vn 0.668078 -0.035359 0.743251
vn 0.668078 -0.035359 0.743251
vn 0.668078 -0.035359 0.743251
vn -0.025987 0.710170 0.703550
vn -0.025987 0.710170 0.703550
vn -0.025987 0.710170 0.703550
vn -0.025987 0.710170 0.703550
vn -0.623557 0.627176 0.466720
vn -0.623556 0.627176 0.466720
vn -0.623556 0.627176 0.466720
vn -0.623557 0.627176 0.466720
vn -0.742928 0.022843 0.668981
vn -0.742928 0.022843 0.668981
vn -0.742928 0.022843 0.668981
vn -0.742928 0.022843 0.668981
vn -0.647047 -0.605217 0.463728
vn -0.647047 -0.605216 0.463728
vn -0.647047 -0.605216 0.463728
vn -0.647047 -0.605216 0.463728
vn -0.033412 -0.707094 0.706329
vn -0.033412 -0.707094 0.706329
vn -0.033412 -0.707094 0.706329
vn -0.033412 -0.707094 0.706329
vn 0.571490 -0.625966 0.530627
vn 0.571490 -0.625966 0.530627
vn 0.571490 -0.625966 0.530627
vn 0.571490 -0.625966 0.530627
vn -0.685839 0.647386 0.332438
vn -0.685839 0.647386 0.332438
vn -0.685839 0.647386 0.332438
vn -0.685839 0.647386 0.332438
vn -0.045628 0.707054 0.705686
vn -0.045628 0.707054 0.705686
vn -0.045628 0.707054 0.705686
vn -0.045628 0.707054 0.705686
vn -0.743599 -0.011721 0.668523
vn -0.743599 -0.011721 0.668523
vn -0.743599 -0.011721 0.668523
vn -0.743599 -0.011721 0.668523
vn -0.665300 -0.668226 0.332941
vn -0.665300 -0.668226 0.332941
vn -0.665300 -0.668226 0.332941
vn -0.665300 -0.668226 0.332941
vn -0.026043 -0.707021 0.706712
vn -0.026043 -0.707021 0.706712
vn -0.026043 -0.707021 0.706712
vn -0.026043 -0.707021 0.706713
vn 0.642496 -0.652383 0.401990
vn 0.642496 -0.652383 0.401990
vn 0.642496 -0.652383 0.401990
vn 0.642496 -0.652383 0.401990
vn 0.668964 0.000000 0.743295
vn 0.668964 0.000000 0.743295
vn 0.668964 0.000000 0.743295
vn 0.668964 0.000000 0.743295
vn 0.633536 0.661617 0.401118
vn 0.633536 0.661617 0.401118
vn 0.633536 0.661617 0.401118
vn 0.633536 0.661617 0.401118
vn -0.052563 -0.000000 0.998618
vn -0.052563 -0.000000 0.998618
vn -0.052563 -0.000000 0.998618
vn -0.052563 -0.000000 0.998618
vn -0.052563 0.000000 0.998618
vn -0.052563 0.000000 0.998618
vn -0.052563 0.000000 0.998618
vn -0.052563 0.000000 0.998618
vn -0.000262 0.959388 0.282089
vn -0.000262 0.959388 0.282089
vn -0.000262 0.959388 0.282089
vn -0.000262 0.959388 0.282089
vn -0.889974 0.027953 0.455153
vn -0.889974 0.027953 0.455153
vn -0.889974 0.027953 0.455153
vn -0.889974 0.027953 0.455153
vn -0.009598 -0.960102 0.279485
vn -0.009598 -0.960102 0.279485
vn -0.009598 -0.960102 0.279485
vn -0.009598 -0.960102 0.279485
vn 0.836419 -0.043258 0.546381
vn 0.836419 -0.043258 0.546381
vn 0.836419 -0.043258 0.546381
vn 0.836419 -0.043258 0.546381
vn -0.947286 -0.015473 0.320016
vn -0.947286 -0.015473 0.320016
vn -0.947286 -0.015473 0.320016
vn -0.947286 -0.015473 0.320016
vn 0.005189 -0.980711 0.195395
vn 0.005189 -0.980711 0.195395
vn 0.005189 -0.980711 0.195395
vn 0.005189 -0.980711 0.195395
vn 0.908656 0.000000 0.417546
vn 0.908656 0.000000 0.417546
vn 0.908656 0.000000 0.417546
vn 0.908656 0.000000 0.417546
vn -0.021973 0.980776 0.193896
vn -0.021973 0.980776 0.193896
vn -0.021973 0.980776 0.193896
vn -0.021973 0.980776 0.193896
vn -0.052563 -0.000000 0.998618
vn -0.052563 0.000000 0.998618
vn 0.554273 0.568975 0.607494
vn 0.554273 0.568975 0.607494
vn 0.554273 0.568975 0.607494
vn -0.052563 0.000000 0.998618
vn -0.594493 0.592502 0.543617
vn -0.594493 0.592502 0.543617
vn -0.594493 0.592502 0.543617
vn -0.052563 -0.000000 0.998618
vn -0.611120 -0.565694 0.553644
vn -0.611121 -0.565694 0.553644
vn -0.611121 -0.565694 0.553644
vn -0.052564 0.000000 0.998618
vn 0.538398 -0.595037 0.596707
vn 0.538398 -0.595037 0.596707
vn 0.538398 -0.595037 0.596707
vn -0.616453 0.567620 0.545704
vn -0.616453 0.567620 0.545704
vn -0.616453 0.567620 0.545704
vn -0.597548 -0.586745 0.546504
vn -0.597548 -0.586745 0.546504
vn -0.597548 -0.586745 0.546504
vn -0.217967 0.000000 0.975956
vn 0.552371 -0.574248 0.604256
vn 0.552371 -0.574248 0.604256
vn 0.552371 -0.574248 0.604256
vn -0.061444 -0.000000 0.998111
vn 0.541455 0.579607 0.609001
vn 0.541455 0.579606 0.609001
vn 0.541455 0.579607 0.609001
vn -0.021297 0.000000 0.999773
vn -0.021297 -0.000000 0.999773
vn -0.021297 -0.000000 0.999773
vn -0.052563 -0.000000 0.998618
vn -0.202667 0.381764 -0.901766
vn -0.202667 0.381764 -0.901766
vn -0.202667 0.381764 -0.901766
vn -0.202667 0.381764 -0.901766
vn 0.017411 0.778708 -0.627145
vn 0.017411 0.778708 -0.627145
vn 0.017411 0.778708 -0.627145
vn 0.017411 0.778708 -0.627145
vn -0.728073 0.005404 -0.685478
vn -0.728073 0.005404 -0.685478
vn -0.728073 0.005404 -0.685478
vn -0.728073 0.005404 -0.685478
vn -0.375801 -0.428754 -0.821549
vn -0.375801 -0.428754 -0.821549
vn -0.375801 -0.428754 -0.821549
vn -0.375801 -0.428754 -0.821549
vn 0.010365 -0.778477 -0.627588
vn 0.010365 -0.778477 -0.627588
vn 0.010365 -0.778477 -0.627588
vn 0.010365 -0.778477 -0.627588
vn 0.653141 0.616133 -0.440212
vn 0.653141 0.616133 -0.440212
vn 0.653141 0.616133 -0.440212
vn 0.653141 0.616133 -0.440212
vn 0.807960 -0.042075 -0.587733
vn 0.807960 -0.042075 -0.587733
vn 0.807960 -0.042075 -0.587733
vn 0.807960 -0.042075 -0.587733
vn 0.605924 -0.637448 -0.475937
vn 0.605924 -0.637448 -0.475937
vn 0.605924 -0.637448 -0.475937
vn 0.605924 -0.637448 -0.475937
vn 0.056877 -0.000000 -0.998381
vn 0.056877 -0.000000 -0.998381
vn 0.056877 -0.000000 -0.998381
vn 0.056877 -0.000000 -0.998381
vn -0.625911 0.000497 -0.779894
vn -0.625911 0.000497 -0.779894
vn -0.625911 0.000497 -0.779894
vn -0.625911 0.000497 -0.779894
vn 0.026946 0.821970 -0.568893
vn 0.026946 0.821970 -0.568893
vn 0.026946 0.821970 -0.568893
vn 0.026946 0.821970 -0.568893
vn 0.901731 -0.047031 -0.429732
vn 0.901731 -0.047031 -0.429732
vn 0.901731 -0.047031 -0.429732
vn 0.901731 -0.047031 -0.429732
vn 0.020923 -0.817793 -0.575131
vn 0.020923 -0.817793 -0.575131
vn 0.020923 -0.817794 -0.575131
vn 0.020923 -0.817793 -0.575131
vn -0.582151 0.614838 -0.532047
vn -0.582151 0.614838 -0.532047
vn -0.582151 0.614838 -0.532047
vn -0.576802 -0.615685 -0.536871
vn -0.576802 -0.615685 -0.536871
vn -0.576802 -0.615685 -0.536871
vn 0.636708 0.606246 -0.476517
vn 0.636708 0.606246 -0.476517
vn 0.636708 0.606246 -0.476517
vn 0.607522 -0.649035 -0.457897
vn 0.607522 -0.649035 -0.457897
vn 0.607522 -0.649035 -0.457897
vn 0.610182 -0.622776 -0.489722
vn 0.610182 -0.622776 -0.489722
vn 0.610182 -0.622776 -0.489722
vn 0.610182 -0.622776 -0.489722
vn 0.715167 0.014674 -0.698799
vn 0.715167 0.014674 -0.698799
vn 0.715167 0.014674 -0.698799
vn 0.715167 0.014674 -0.698799
vn 0.000269 -0.720345 -0.693616
vn 0.000269 -0.720345 -0.693616
vn 0.000269 -0.720345 -0.693616
vn 0.000269 -0.720345 -0.693616
vn -0.666133 -0.681926 -0.302066
vn -0.666133 -0.681926 -0.302066
vn -0.666133 -0.681926 -0.302066
vn -0.666133 -0.681926 -0.302066
vn -0.698742 -0.006187 -0.715347
vn -0.698742 -0.006187 -0.715347
vn -0.698742 -0.006187 -0.715347
vn -0.698742 -0.006187 -0.715347
vn -0.579934 0.788639 -0.204267
vn -0.579934 0.788639 -0.204267
vn -0.579934 0.788639 -0.204267
vn -0.579934 0.788639 -0.204267
vn 0.030644 0.712744 -0.700754
vn 0.030644 0.712744 -0.700754
vn 0.030644 0.712744 -0.700754
vn 0.030644 0.712744 -0.700754
vn 0.615627 0.617042 -0.490166
vn 0.615627 0.617042 -0.490166
vn 0.615627 0.617042 -0.490166
vn 0.615627 0.617042 -0.490166
vn 0.011743 -0.003062 -0.999926
vn 0.011743 -0.003062 -0.999926
vn 0.011743 -0.003062 -0.999926
vn 0.011743 -0.003062 -0.999926
vn -0.012882 -0.978189 -0.207316
vn -0.012882 -0.978189 -0.207316
vn -0.012882 -0.978189 -0.207316
vn -0.012882 -0.978189 -0.207316
vn -0.953785 -0.006331 -0.300424
vn -0.953785 -0.006331 -0.300424
vn -0.953785 -0.006331 -0.300424
vn -0.953785 -0.006331 -0.300424
vn 0.018832 0.997434 -0.069069
vn 0.018832 0.997434 -0.069069
vn 0.018832 0.997434 -0.069069
vn 0.018832 0.997434 -0.069069
vn 0.870656 0.019064 -0.491523
vn 0.870656 0.019064 -0.491523
vn 0.870656 0.019064 -0.491523
vn 0.870656 0.019064 -0.491523
vn 0.572118 -0.595008 -0.564488
vn 0.572118 -0.595008 -0.564488
vn 0.572118 -0.595008 -0.564488
vn -0.569502 -0.587752 -0.574644
vn -0.569502 -0.587752 -0.574644
vn -0.569502 -0.587752 -0.574644
vn -0.554538 0.588142 -0.588707
vn -0.554538 0.588142 -0.588707
vn -0.554538 0.588142 -0.588707
vn 0.586779 0.586765 -0.558031
vn 0.586779 0.586765 -0.558031
vn 0.586779 0.586765 -0.558031
vn 0.688932 0.647386 -0.325982
vn 0.688932 0.647386 -0.325982
vn 0.688932 0.647386 -0.325982
vn 0.688932 0.647386 -0.325982
vn 0.052254 0.707055 -0.705225
vn 0.052254 0.707055 -0.705225
vn 0.052254 0.707055 -0.705225
vn 0.052254 0.707055 -0.705225
vn 0.749847 -0.011722 -0.661508
vn 0.749847 -0.011722 -0.661508
vn 0.749847 -0.011722 -0.661508
vn 0.749847 -0.011722 -0.661508
vn 0.668399 -0.668224 -0.326678
vn 0.668399 -0.668224 -0.326678
vn 0.668399 -0.668224 -0.326678
vn 0.668399 -0.668224 -0.326678
vn 0.032680 -0.707021 -0.706438
vn 0.032680 -0.707021 -0.706437
vn 0.032680 -0.707021 -0.706437
vn 0.032680 -0.707021 -0.706437
vn -0.638692 -0.652381 -0.408009
vn -0.638692 -0.652381 -0.408009
vn -0.638692 -0.652381 -0.408009
vn -0.638692 -0.652381 -0.408009
vn -0.661952 0.000000 -0.749547
vn -0.661952 0.000000 -0.749547
vn -0.661952 0.000000 -0.749547
vn -0.661952 0.000000 -0.749547
vn -0.629738 0.661618 -0.407052
vn -0.629738 0.661618 -0.407052
vn -0.629738 0.661618 -0.407052
vn -0.629738 0.661618 -0.407052
vn 0.061941 0.000000 -0.998080
vn 0.061941 0.000000 -0.998080
vn 0.061941 0.000000 -0.998080
vn 0.061941 0.000000 -0.998080
vn 0.950250 -0.015473 -0.311104
vn 0.950250 -0.015473 -0.311104
vn 0.950250 -0.015473 -0.311104
vn 0.950250 -0.015473 -0.311104
vn -0.003353 -0.980711 -0.195436
vn -0.003353 -0.980711 -0.195436
vn -0.003353 -0.980711 -0.195436
vn -0.003353 -0.980711 -0.195436
vn -0.904693 0.000000 -0.426064
vn -0.904693 0.000000 -0.426064
vn -0.904693 0.000000 -0.426064
vn -0.904693 0.000000 -0.426064
vn 0.023793 0.980776 -0.193679
vn 0.023793 0.980776 -0.193679
vn 0.023793 0.980776 -0.193679
vn 0.023793 0.980776 -0.193679
vn 0.621550 0.567626 -0.539885
vn 0.621550 0.567626 -0.539885
vn 0.621550 0.567626 -0.539885
vn 0.602656 -0.586744 -0.540868
vn 0.602656 -0.586744 -0.540868
vn 0.602656 -0.586744 -0.540868
vn -0.546667 -0.574254 -0.609416
vn -0.546667 -0.574254 -0.609416
vn -0.546667 -0.574254 -0.609416
vn -0.535708 0.579609 -0.614060
vn -0.535708 0.579609 -0.614060
vn -0.535708 0.579609 -0.614060
s off
g polySurface1
f 1/1/1 2/2/2 5/3/3 4/4/4
f 3/5/5 5/3/6 14/6/7 13/7/8
f 4/4/9 3/5/10 10/8/11 9/9/12
f 6/10/13 7/11/14 9/9/15 8/12/16
f 8/12/17 10/8/18 18/13/19 20/14/20
f 11/15/21 12/16/22 15/17/23 14/6/24
f 13/7/25 15/17/26 19/18/27 18/13/28
f 16/19/29 17/20/30 20/14/31 19/18/32
f 10/8/33 3/5/34 13/7/35 18/13/36
f 9/9/37 7/11/38 1/1/39 4/4/40
f 5/3/41 2/2/42 11/15/43 14/6/44
f 15/17/45 12/16/46 16/19/47 19/18/48
f 20/14/49 17/20/50 6/10/51 8/12/52
f 3/5/53 4/4/54 5/3/55
f 8/12/56 9/9/57 10/8/58
f 13/7/59 14/6/60 15/17/61
f 18/13/62 19/18/63 20/14/64
f 21/21/65 22/22/66 24/23/67 23/24/68
f 23/24/69 25/25/70 38/26/71 40/27/72
f 25/25/73 24/23/74 29/28/75 28/29/76
f 26/30/77 27/31/78 30/32/79 29/28/80
f 28/29/81 30/32/82 34/33/83 33/34/84
f 31/35/85 32/36/86 35/37/87 34/33/88
f 33/34/89 35/37/90 39/38/91 38/26/92
f 36/39/93 37/40/94 40/27/95 39/38/96
f 25/25/97 28/29/98 33/34/99 38/26/100
f 24/23/101 22/22/102 26/30/103 29/28/104
f 30/32/105 27/31/106 31/35/107 34/33/108
f 35/37/109 32/36/110 36/39/111 39/38/112
f 40/27/113 37/40/114 21/21/115 23/24/116
f 23/24/117 24/23/118 25/25/119
f 28/29/120 29/28/121 30/32/122
f 33/34/123 34/33/124 35/37/125
f 38/26/126 39/38/127 40/27/128
f 41/41/129 42/42/130 44/43/131 43/44/132
f 43/44/133 45/45/134 58/46/135 60/47/136
f 45/45/137 44/43/138 49/48/139 48/49/140
f 46/50/141 47/51/142 50/52/143 49/48/144
f 48/49/145 50/52/146 54/53/147 53/54/148
f 51/55/149 52/56/150 55/57/151 54/53/152
f 53/54/153 55/57/154 59/58/155 58/46/156
f 56/59/157 57/60/158 60/47/159 59/58/160
f 45/45/161 48/49/162 53/54/163 58/46/164
f 44/43/165 42/42/166 46/50/167 49/48/168
f 50/52/169 47/51/170 51/55/171 54/53/172
f 55/57/173 52/56/174 56/59/175 59/58/176
f 60/47/177 57/60/178 41/41/179 43/44/180
f 43/44/181 44/43/182 45/45/183
f 48/49/184 49/48/185 50/52/186
f 53/54/187 54/53/188 55/57/189
f 58/46/190 59/58/191 60/47/192
f 61/61/193 62/62/194 65/63/195 64/64/196
f 63/65/197 65/63/198 74/66/199 73/67/200
f 64/64/201 63/65/202 70/68/203 69/69/204
f 66/70/205 67/71/206 69/69/207 68/72/208
f 68/72/209 70/68/210 78/73/211 80/74/212
f 71/75/213 72/76/214 75/77/215 74/66/216
f 73/67/217 75/77/218 79/78/219 78/73/220
f 76/79/221 77/80/222 80/74/223 79/78/224
f 70/68/225 63/65/226 73/67/227 78/73/228
f 69/69/229 67/71/230 61/61/231 64/64/232
f 65/63/233 62/62/234 71/75/235 74/66/236
f 75/77/237 72/76/238 76/79/239 79/78/240
f 80/74/241 77/80/242 66/70/243 68/72/244
f 63/65/245 64/64/246 65/63/247
f 68/72/248 69/69/249 70/68/250
f 73/67/251 74/66/252 75/77/253
f 78/73/254 79/78/255 80/74/256
f 81/81/257 83/82/258 99/83/259 101/84/260
s 1
f 82/85/261 81/86/262 113/87/263 114/88/264
s off
f 83/89/265 82/85/266 88/90/267 87/91/268
f 84/92/269 86/93/270 102/94/271 104/95/272
f 85/96/273 84/97/274 92/98/275 91/99/276
f 87/100/277 89/101/278 94/102/279 93/103/280
s 2
f 89/101/281 88/90/282 115/104/283 116/105/284
s off
f 90/106/285 92/107/286 98/108/287 97/109/288
f 93/110/289 95/111/290 100/112/291 99/113/292
s 3
f 95/111/293 94/102/294 117/114/295 118/115/296
s off
f 96/116/297 98/117/298 104/118/299 103/119/300
s 4
f 101/84/301 100/112/302 119/120/303 120/121/304
s 5
f 89/101/305 116/105/306 117/114/307 94/102/308
s 6
f 95/111/309 118/115/310 119/120/311 100/112/312
s 7
f 101/84/313 120/121/314 113/122/315 81/81/316
s off
f 84/97/317 104/123/318 98/124/319 92/98/320
f 99/125/321 83/89/322 87/91/323 93/126/324
f 81/86/325 82/85/326 83/89/327
f 84/97/328 85/96/329 86/127/330
f 87/91/331 88/90/332 89/101/333
f 90/106/334 91/99/335 92/98/336
f 93/103/337 94/102/338 95/111/339
f 96/116/340 97/109/341 98/108/342
f 99/113/343 100/112/344 101/84/345
f 102/94/346 103/119/347 104/118/348
s 1
f 121/128/349 122/129/350 86/127/351 85/96/352
s 9
f 128/130/353 208/131/354 207/132/355 91/99/356
s 2
f 127/133/357 128/130/358 91/99/359 90/106/360
s 5
f 126/134/361 127/133/362 90/106/363 97/109/364
s 3
f 125/135/365 126/134/366 97/109/367 96/116/368
s 6
f 124/136/369 125/135/370 96/116/371 103/119/372
s 4
f 123/137/373 124/136/374 103/119/375 102/94/376
s 7
f 122/138/377 123/137/378 102/94/379 86/93/380
s 1
f 114/88/264 113/87/263 105/139/381 106/140/382
s 9
f 154/141/383 106/140/384 157/142/385
s 2
f 116/105/284 115/104/283 107/143/386 108/144/387
s 5
f 117/114/307 116/105/306 108/144/388 109/145/389
s 3
f 118/115/296 117/114/295 109/145/390 110/146/391
s 6
f 119/120/311 118/115/310 110/146/392 111/147/393
s 4
f 120/121/304 119/120/303 111/147/394 112/148/395
s 7
f 113/122/315 120/121/314 112/148/396 105/149/397
s 1
f 106/140/382 105/139/381 122/129/350 121/128/349
s 7
f 105/149/397 112/148/396 123/137/378 122/138/377
s 4
f 112/148/395 111/147/394 124/136/374 123/137/373
s 6
f 111/147/393 110/146/392 125/135/370 124/136/369
s 3
f 110/146/391 109/145/390 126/134/366 125/135/365
s 5
f 109/145/389 108/144/388 127/133/362 126/134/361
s 2
f 108/144/387 107/143/386 128/130/358 127/133/357
s 9
f 107/143/398 160/150/399 159/151/400 128/130/353
f 82/85/401 130/152/402 129/153/403
f 130/152/402 142/154/404 141/155/405 131/156/406
f 147/157/407 115/104/408 148/158/409
f 149/159/410 148/158/409 136/160/411 135/161/412
s off
f 129/162/413 131/163/414 134/164/415 133/165/416
f 132/166/417 134/164/418 145/167/419 144/168/420
f 133/165/421 132/166/422 140/169/423 139/170/424
f 135/171/425 137/172/426 139/170/427 138/173/428
f 138/173/429 140/169/430 150/174/431 152/175/432
f 141/176/433 143/177/434 146/178/435 145/167/436
f 144/168/437 146/178/438 151/179/439 150/174/440
f 147/180/441 149/181/442 152/175/443 151/179/444
f 140/169/445 132/166/446 144/168/447 150/174/448
f 139/170/449 137/172/450 129/162/451 133/165/452
f 134/164/453 131/163/454 141/176/455 145/167/456
f 146/178/457 143/177/458 147/180/459 151/179/460
f 152/175/461 149/181/462 135/171/463 138/173/464
s 9
f 129/153/403 130/152/402 131/156/406
s off
f 132/166/465 133/165/466 134/164/467
s 9
f 135/161/412 136/160/411 137/182/468
s off
f 138/173/469 139/170/470 140/169/471
s 9
f 141/155/405 142/154/404 143/183/472
s off
f 144/168/473 145/167/474 146/178/475
s 9
f 147/157/407 148/158/409 149/159/410
s off
f 150/174/476 151/179/477 152/175/478
s 9
f 153/184/479 156/185/480 155/186/481 154/141/383
f 115/104/408 156/185/480 153/184/479 107/143/398
f 115/104/408 114/88/482 155/186/481 156/185/480
f 155/186/481 114/88/482 106/140/384 154/141/383
f 107/143/398 166/187/483 160/150/399
f 208/131/354 182/188/484 187/189/485 186/190/486
f 107/143/398 157/142/385 167/191/487 166/187/483
f 154/141/383 157/142/385 107/143/398 153/184/479
f 91/99/356 207/132/355 206/192/488
f 85/96/489 201/193/490 200/194/491 121/128/492
f 194/195/493 200/194/491 199/196/494 195/197/495
f 106/140/384 179/198/496 173/199/497
f 106/140/384 193/200/498 180/201/499
f 168/202/500 106/140/384 173/199/497 172/203/501
f 187/189/485 193/200/498 192/204/502 188/205/503
s off
f 158/206/504 161/207/505 163/208/506 162/209/507
f 162/209/508 164/210/509 183/211/510 185/212/511
f 164/210/512 163/208/513 170/213/514 169/214/515
f 165/215/516 168/216/517 171/217/518 170/213/519
f 169/214/520 171/217/521 176/218/522 175/219/523
f 172/220/524 174/221/525 177/222/526 176/218/527
f 175/219/528 177/222/529 184/223/530 183/211/531
f 178/224/532 182/225/533 185/212/534 184/223/535
f 186/226/536 188/227/537 190/228/538 189/229/539
f 189/229/540 191/230/541 210/231/542 212/232/543
f 191/230/544 190/228/545 197/233/546 196/234/547
f 192/235/548 195/236/549 198/237/550 197/233/551
f 196/234/552 198/237/553 204/238/554 203/239/555
f 199/240/556 202/241/557 205/242/558 204/238/559
f 203/239/560 205/242/561 211/243/562 210/231/563
f 206/244/564 209/245/565 212/232/566 211/243/567
f 164/210/568 169/214/569 175/219/570 183/211/571
f 191/230/572 196/234/573 203/239/574 210/231/575
f 163/208/576 161/207/577 165/215/578 170/213/579
f 171/217/580 168/216/581 172/220/582 176/218/583
f 177/222/584 174/221/585 178/224/586 184/223/587
f 185/212/588 182/225/589 158/206/590 162/209/591
f 190/228/592 188/227/593 192/235/594 197/233/595
f 198/237/596 195/236/597 199/240/598 204/238/599
f 205/242/600 202/241/601 206/244/602 211/243/603
f 212/232/604 209/245/605 186/226/606 189/229/607
s 9
f 158/246/608 159/151/400 160/150/399 161/247/609
s off
f 162/209/610 163/208/611 164/210/612
s 9
f 165/248/613 166/187/483 167/191/487 168/202/500
s off
f 169/214/614 170/213/615 171/217/616
s 9
f 172/203/501 173/199/497 174/249/617
s off
f 175/219/618 176/218/619 177/222/620
s 9
f 181/250/621 179/198/496 180/201/499
s off
f 183/211/622 184/223/623 185/212/624
s 9
f 186/190/486 187/189/485 188/205/503
s off
f 189/229/625 190/228/626 191/230/627
s 9
f 192/204/502 193/200/498 194/195/493 195/197/495
s off
f 196/234/628 197/233/629 198/237/630
s 9
f 199/196/494 200/194/491 201/193/490 202/251/631
s off
f 203/239/632 204/238/633 205/242/634
s 9
f 206/192/488 207/132/355 208/131/354 209/252/635
s off
f 210/231/636 211/243/637 212/232/638
s 9
f 136/160/411 148/158/409 115/104/408 88/90/639
f 82/85/640 114/88/482 142/154/404 130/152/402
f 143/183/472 142/154/404 114/88/482
f 82/85/401 129/153/403 137/182/468 88/90/641
f 88/90/641 137/182/468 136/160/411
f 143/183/472 114/88/482 115/104/408 147/157/407
f 160/150/399 166/187/483 165/248/613 161/247/609
f 173/199/497 179/198/496 178/253/642 174/249/617
f 181/250/621 180/201/499 193/200/498 187/189/485
f 208/131/354 159/151/400 158/246/608
f 121/128/492 200/194/491 194/195/493 106/140/384
f 85/96/489 202/251/631 201/193/490
f 91/99/356 206/192/488 202/251/631 85/96/489
f 168/202/500 167/191/487 157/142/385 106/140/384
f 106/140/384 194/195/493 193/200/498
f 106/140/384 180/201/499 179/198/496
f 178/253/642 179/198/496 181/250/621 182/188/484
f 208/131/354 158/246/608 182/188/484
f 128/130/353 159/151/400 208/131/354
f 187/189/485 182/188/484 181/250/621
f 208/131/354 186/190/486 209/252/635
s off
f 213/254/643 214/255/644 217/256/645 216/257/646
f 215/258/647 217/256/648 226/259/649 225/260/650
f 216/257/651 215/258/652 222/261/653 221/262/654
f 218/263/655 219/264/656 221/262/657 220/265/658
f 220/265/659 222/261/660 230/266/661 232/267/662
f 223/268/663 224/269/664 227/270/665 226/259/666
f 225/260/667 227/270/668 231/271/669 230/266/670
f 228/272/671 229/273/672 232/267/673 231/271/674
f 222/261/675 215/258/676 225/260/677 230/266/678
f 221/262/679 219/264/680 213/254/681 216/257/682
f 217/256/683 214/255/684 223/268/685 226/259/686
f 227/270/687 224/269/688 228/272/689 231/271/690
f 232/267/691 229/273/692 218/263/693 220/265/694
f 215/258/695 216/257/696 217/256/697
f 220/265/698 221/262/699 222/261/700
f 225/260/701 226/259/702 227/270/703
f 230/266/704 231/271/705 232/267/706
f 233/274/707 234/275/708 236/276/709 235/277/710
f 235/277/711 237/278/712 250/279/713 252/280/714
f 237/278/715 236/276/716 241/281/717 240/282/718
f 238/283/719 239/284/720 242/285/721 241/281/722
f 240/282/723 242/285/724 246/286/725 245/287/726
f 243/288/727 244/289/728 247/290/729 246/286/730
f 245/287/731 247/290/732 251/291/733 250/279/734
f 248/292/735 249/293/736 252/280/737 251/291/738
f 237/278/739 240/282/740 245/287/741 250/279/742
f 236/276/743 234/275/744 238/283/745 241/281/746
f 242/285/747 239/284/748 243/288/749 246/286/750
f 247/290/751 244/289/752 248/292/753 251/291/754
f 252/280/755 249/293/756 233/274/757 235/277/758
f 235/277/759 236/276/760 237/278/761
f 240/282/762 241/281/763 242/285/764
f 245/287/765 246/286/766 247/290/767
f 250/279/768 251/291/769 252/280/770
f 253/294/771 254/295/772 256/296/773 255/297/774
f 255/297/775 257/298/776 270/299/777 272/300/778
f 257/298/779 256/296/780 261/301/781 260/302/782
f 258/303/783 259/304/784 262/305/785 261/301/786
f 260/302/787 262/305/788 266/306/789 265/307/790
f 263/308/791 264/309/792 267/310/793 266/306/794
f 265/307/795 267/310/796 271/311/797 270/299/798
f 268/312/799 269/313/800 272/300/801 271/311/802
f 257/298/803 260/302/804 265/307/805 270/299/806
f 256/296/807 254/295/808 258/303/809 261/301/810
f 262/305/811 259/304/812 263/308/813 266/306/814
f 267/310/815 264/309/816 268/312/817 271/311/818
f 272/300/819 269/313/820 253/294/821 255/297/822
f 255/297/823 256/296/824 257/298/825
f 260/302/826 261/301/827 262/305/828
f 265/307/829 266/306/830 267/310/831
f 270/299/832 271/311/833 272/300/834
