# This file uses centimeters as units for non-parametric coordinates.

g default
v -9.286526 0.000000 0.813350
v -9.286526 0.203312 1.016662
v -9.489838 0.203312 0.813350
v 9.489838 0.203312 0.813350
v 9.286526 0.203312 1.016662
v 9.286526 0.000000 0.813350
v -9.489838 0.203312 -0.813350
v -9.286526 0.203312 -1.016662
v -9.286526 0.000000 -0.813350
v 9.286526 0.000000 -0.813350
v 9.286526 0.203312 -1.016662
v 9.489838 0.203312 -0.813350
v -9.286526 7.766393 1.016662
v -9.489838 7.766393 0.813350
v -9.489838 7.766393 -0.813350
v -9.286526 7.766393 -1.016662
v -5.771836 0.000000 1.090176
v -5.771836 0.203312 1.293488
v -5.771836 7.766393 1.293488
v -5.771836 9.111754 1.293488
v -5.771836 9.315066 1.090176
v -5.771836 9.315066 -0.536524
v -5.771836 9.111754 -0.739836
v -5.771836 7.766393 -0.739836
v -5.771836 0.203312 -0.739836
v -5.771836 0.000000 -0.536524
v 0.087960 0.203312 0.862582
v 0.087960 0.000000 0.659270
v 0.087960 0.000000 -0.967430
v 0.087960 0.203312 -1.170742
v 0.087960 7.766393 -1.170742
v 0.087960 9.111754 -1.170742
v 0.087960 9.315066 -0.967430
v 0.087960 9.315066 0.659270
v 0.087960 9.111754 0.862582
v 0.087960 7.766393 0.862582
v 1.597665 0.203312 1.203876
v 1.597665 0.000000 1.000564
v 1.597665 0.000000 -0.626136
v 1.597665 0.203312 -0.829448
v 1.597665 7.766393 -0.829448
v 1.597665 7.766393 1.203876
v 3.048322 0.203312 1.016662
v 3.048322 0.000000 0.813350
v 3.048322 0.000000 -0.813350
v 3.048322 0.203312 -1.016662
v 4.479835 0.203312 1.234835
v 4.479834 0.000000 1.031523
v 4.479835 0.000000 -0.595176
v 4.479834 0.203312 -0.798488
v -9.286526 6.374105 1.016662
v -9.489838 6.374105 0.813350
v -9.489838 6.374105 -0.813350
v -9.286526 6.374105 -1.016662
v -5.771836 6.374105 -0.739836
v 0.087960 6.374105 -1.170742
v 1.597665 6.374105 -0.829448
v 3.048322 6.374105 -1.016662
v 3.048322 6.374105 1.016662
v 1.597665 6.374105 1.203876
v 0.087960 6.374105 0.862582
v -5.771836 6.374105 1.293488
v -9.286526 4.898138 1.016662
v -9.489838 4.898138 0.813350
v -9.489838 4.898138 -0.813350
v -9.286526 4.898138 -1.016662
v -5.771836 4.898138 -0.739836
v 0.087960 4.898138 -1.170742
v 1.597665 4.898138 -0.829448
v 3.048322 4.898138 -1.016662
v 4.479834 4.898138 -0.798488
v 4.479835 4.898138 1.234835
v 3.048322 4.898138 1.016662
v 1.597665 4.898138 1.203876
v 0.087960 4.898138 0.862582
v -5.771836 4.898138 1.293488
v -9.286526 3.443399 1.016662
v -9.489838 3.443399 0.813350
v -9.489838 3.443399 -0.813350
v -9.286526 3.443399 -1.016662
v -5.771836 3.443399 -0.739836
v 0.087960 3.443399 -1.170742
v 1.597665 3.443399 -0.829448
v 3.048322 3.443399 -1.016662
v 4.479834 3.443399 -0.798488
v 9.286526 3.443399 -1.016662
v 9.489838 3.443399 -0.813350
v 9.489838 3.443399 0.813350
v 9.286526 3.443399 1.016662
v 4.479835 3.443399 1.234835
v 3.048322 3.443399 1.016662
v 1.597665 3.443399 1.203876
v 0.087960 3.443399 0.862582
v -5.771836 3.443399 1.293488
vt 1.805220 -0.775950
vt 1.822595 -0.775950
vt 1.822595 -0.634856
vt 1.805219 1.175056
vt 1.805219 1.157421
vt 0.200588 -0.775950
vt 0.217963 -0.775950
vt 0.200588 -0.634856
vt 0.180531 1.157422
vt 1.822595 -0.599586
vt 0.200588 -0.599587
vt 1.805220 -0.599586
vt 0.217963 -0.599587
vt 0.217963 -0.634856
vt 0.217963 1.157421
vt 1.805220 -0.634856
vt 0.020057 1.157421
vt 1.982261 1.157422
vt 1.840333 1.157422
vt 0.217963 1.175055
vt 1.504853 0.804911
vt 1.840334 0.501426
vt 1.822584 0.053858
vt 1.982259 0.501429
vt 1.805219 0.046231
vt 1.504853 1.175056
vt 1.504854 -0.775950
vt 1.504853 1.157421
vt 1.504854 0.501207
vt 1.504854 0.384953
vt 1.504854 0.349464
vt 1.504854 0.208370
vt 1.664682 0.385172
vt 1.664682 0.500988
vt 1.504854 -0.599586
vt 1.504854 -0.634856
vt 1.004074 1.157421
vt 1.004074 1.175056
vt 1.004074 -0.775950
vt 1.004074 -0.634856
vt 1.004074 -0.599587
vt 0.835860 0.501063
vt 0.835860 0.385096
vt 1.004074 0.208370
vt 1.004074 0.349464
vt 1.004074 0.384915
vt 1.004074 0.501244
vt 0.875055 1.157421
vt 0.875054 1.175056
vt 0.875055 -0.775950
vt 0.875055 -0.634856
vt 0.875055 -0.599587
vt 0.835860 0.631949
vt 1.004074 0.631949
vt 0.751081 1.157421
vt 0.751081 1.175056
vt 0.751081 -0.775950
vt 0.751081 -0.634856
vt 0.751081 -0.599587
vt 0.628744 1.157421
vt 0.628744 1.175056
vt 0.628744 -0.775950
vt 0.628744 -0.634856
vt 0.628744 -0.599587
vt 1.805220 0.622188
vt 1.840333 0.622188
vt 1.822595 -0.064353
vt 1.982261 0.622188
vt 1.805220 -0.064353
vt 1.504854 -0.064353
vt 1.004074 -0.064353
vt 0.835860 0.751960
vt 0.835860 0.876590
vt 1.004074 0.876590
vt 1.004074 0.751960
vt 1.004074 0.622188
vt 1.504854 0.622188
vt 1.805220 0.750208
vt 1.840333 0.750209
vt 1.822595 -0.192374
vt 1.982261 0.750209
vt 1.805220 -0.192374
vt 1.504854 -0.192374
vt 1.004074 -0.192374
vt 0.875055 -0.192374
vt 0.835860 1.003814
vt 0.835860 1.127688
vt 1.004074 1.127688
vt 1.004074 1.003814
vt 0.875055 0.750208
vt 1.004074 0.750208
vt 1.504853 0.750208
vt 1.805219 0.876387
vt 1.840333 0.876388
vt 1.822595 -0.318553
vt 1.982261 0.876388
vt 1.805220 -0.318552
vt 1.504854 -0.318553
vt 1.004074 -0.318553
vt 0.875055 -0.318553
vt 0.751081 -0.318553
vt 0.835860 1.253083
vt 0.215911 0.701244
vt 0.200599 -0.325337
vt 0.020060 0.876389
vt 0.180531 0.876387
vt 0.216937 0.876387
vt 0.629770 0.876387
vt 0.751081 0.876387
vt 0.875055 0.876387
vt 1.004074 0.876387
vt 1.504853 0.876387
vt 1.504853 0.822414
vt 1.664681 0.804912
vt 1.664681 0.822414
vt 0.198398 0.876387
vt 0.198398 0.701244
vt 1.004074 1.253083
vt 0.628744 -0.318553
vt 0.630797 0.701244
vt 0.217964 -0.345654
vt 0.628744 -0.192374
vt 0.628744 0.750208
vt 0.751081 0.750208
vt 0.751081 -0.192374
vt 0.751081 -0.064353
vt 0.751081 0.622188
vt 0.875055 0.622188
vt 0.875055 -0.064353
vt 0.875055 0.056409
vt 0.875055 0.501426
vt 1.004074 0.367571
vt 0.835860 0.367571
vt 1.004074 0.173101
vt 1.004074 0.056409
vt 1.504854 0.173101
vt 1.504854 0.056409
vt 1.664682 0.367670
vt 1.805220 0.501426
vt 1.504854 0.367669
vn -0.707107 -0.707107 0.000000
vn -0.707107 -0.707107 0.000000
vn -0.707107 -0.707107 0.000000
vn -0.707107 -0.707107 0.000000
vn -0.055607 -0.706013 0.706013
vn -0.055607 -0.706013 0.706013
vn 0.011564 -0.707060 0.707060
vn 0.011682 -0.707059 0.707059
vn -0.707107 0.000000 0.707107
vn -0.707107 0.000000 0.707107
vn -0.707107 0.000000 0.707107
vn -0.707107 0.000000 0.707107
vn 0.707107 -0.707107 0.000000
vn 0.707107 -0.707107 0.000000
vn 0.707107 -0.707107 0.000000
vn 0.707107 -0.707107 0.000000
vn 0.707107 0.000000 0.707107
vn 0.707107 0.000000 0.707107
vn 0.707107 0.000000 0.707107
vn 0.707107 0.000000 0.707107
vn -0.707107 0.000000 -0.707107
vn -0.707107 0.000000 -0.707107
vn -0.707107 0.000000 -0.707107
vn -0.707107 0.000000 -0.707107
vn 0.707107 0.000000 -0.707107
vn 0.707107 0.000000 -0.707107
vn 0.707107 0.000000 -0.707107
vn 0.707107 0.000000 -0.707107
vn 0.055607 -0.706013 -0.706013
vn 0.055607 -0.706013 -0.706013
vn -0.011564 -0.707060 -0.707060
vn -0.011682 -0.707059 -0.707059
vn -0.078519 0.000000 0.996913
vn 0.016434 0.000000 0.999865
vn 0.016434 0.000000 0.999865
vn -0.078519 0.000000 0.996913
vn 0.078519 -0.000000 -0.996913
vn -0.016434 0.000000 -0.999865
vn -0.016434 -0.000000 -0.999865
vn 0.078519 -0.000000 -0.996913
vn 0.000000 -1.000000 0.000000
vn 0.000000 -1.000000 0.000000
vn 0.000000 -1.000000 0.000000
vn 0.000000 -1.000000 0.000000
vn 1.000000 0.000000 0.000000
vn 1.000000 0.000000 0.000000
vn 1.000000 0.000000 0.000000
vn 1.000000 0.000000 0.000000
vn -1.000000 0.000000 0.000000
vn -1.000000 0.000000 0.000000
vn -1.000000 0.000000 0.000000
vn -1.000000 0.000000 0.000000
vn -0.577350 -0.577351 0.577350
vn -0.577350 -0.577351 0.577350
vn -0.577350 -0.577351 0.577350
vn 0.577350 -0.577351 0.577350
vn 0.577350 -0.577351 0.577350
vn 0.577350 -0.577351 0.577350
vn -0.577350 -0.577351 -0.577350
vn -0.577350 -0.577351 -0.577350
vn -0.577350 -0.577351 -0.577350
vn 0.577350 -0.577351 -0.577350
vn 0.577350 -0.577351 -0.577350
vn 0.577350 -0.577351 -0.577350
vn 0.001214 -0.707106 0.707106
vn -0.001140 -0.707106 0.707106
vn 0.032079 -0.706743 0.706743
vn 0.032079 -0.706743 0.706743
vn 0.045343 0.000000 0.998971
vn -0.014234 -0.000000 0.999899
vn 0.000000 -0.000000 1.000000
vn 0.045343 0.000000 0.998971
vn 0.000000 0.000000 -1.000000
vn 0.014234 0.000000 -0.999899
vn -0.045343 0.000000 -0.998972
vn -0.045343 0.000000 -0.998972
vn -0.001214 -0.707106 -0.707106
vn 0.001140 -0.707106 -0.707106
vn -0.032079 -0.706743 -0.706743
vn -0.032079 -0.706743 -0.706743
vn 0.000000 -1.000000 0.000000
vn 0.000000 -1.000000 0.000000
vn 0.000000 -1.000000 0.000000
vn 0.000000 -1.000000 0.000000
vn 0.011010 -0.707064 0.707064
vn 0.006401 -0.707092 0.707092
vn 0.000000 -1.000000 0.000000
vn 0.000000 -1.000000 0.000000
vn -0.011010 -0.707064 -0.707064
vn -0.006401 -0.707092 -0.707092
vn -0.012159 0.000000 -0.999926
vn -0.012159 0.000000 -0.999926
vn -0.037911 0.000000 -0.999281
vn -0.073338 0.000000 -0.997307
vn -0.073338 0.000000 -0.997307
vn -0.038798 -0.000000 -0.999247
vn -0.051928 0.706152 -0.706153
vn -0.051928 0.706152 -0.706153
vn -0.051928 0.706152 -0.706153
vn -0.051928 0.706152 -0.706153
vn 0.000000 1.000000 0.000000
vn 0.000000 1.000000 0.000000
vn 0.000000 1.000000 0.000000
vn 0.000000 1.000000 0.000000
vn 0.051928 0.706152 0.706153
vn 0.051928 0.706152 0.706153
vn 0.051928 0.706152 0.706153
vn 0.051928 0.706152 0.706153
vn 0.073338 0.000000 0.997307
vn 0.037911 0.000000 0.999281
vn 0.038798 0.000000 0.999247
vn 0.073338 0.000000 0.997307
vn 0.012159 0.000000 0.999926
vn 0.012159 0.000000 0.999926
vn -0.039214 -0.706563 0.706563
vn -0.033924 -0.706700 0.706700
vn 0.000000 -1.000000 0.000000
vn 0.000000 -1.000000 0.000000
vn 0.039214 -0.706563 -0.706563
vn 0.033924 -0.706700 -0.706700
vn 0.051977 0.000000 -0.998648
vn 0.051977 -0.000000 -0.998648
vn -0.051977 0.000000 0.998648
vn -0.051977 0.000000 0.998648
vn -0.007051 -0.707089 0.707089
vn -0.008075 -0.707084 0.707084
vn 0.000000 -1.000000 0.000000
vn 0.000000 -1.000000 0.000000
vn 0.007051 -0.707089 -0.707089
vn 0.008075 -0.707084 -0.707084
vn 0.010741 0.000000 -0.999942
vn 0.010741 0.000000 -0.999942
vn -0.010741 -0.000000 0.999942
vn -0.010741 -0.000000 0.999942
vn -0.707107 0.000000 0.707107
vn -0.707107 0.000000 0.707107
vn -0.707107 0.000000 0.707107
vn -0.707107 0.000000 0.707107
vn -1.000000 0.000000 0.000000
vn -1.000000 0.000000 0.000000
vn -1.000000 0.000000 0.000000
vn -1.000000 0.000000 0.000000
vn -0.707107 0.000000 -0.707107
vn -0.707107 0.000000 -0.707107
vn -0.707107 0.000000 -0.707107
vn -0.707107 0.000000 -0.707107
vn 0.078519 0.000000 -0.996913
vn -0.016434 -0.000000 -0.999865
vn 0.078519 0.000000 -0.996913
vn -0.012159 -0.000000 -0.999926
vn 0.107936 0.000000 -0.994158
vn 0.220502 0.000000 -0.975387
vn 0.012159 -0.000000 0.999926
vn -0.107936 -0.000000 0.994158
vn -0.220502 0.000000 0.975387
vn 0.016434 0.000000 0.999865
vn -0.078519 0.000000 0.996913
vn -0.078519 0.000000 0.996913
vn -0.707107 0.000000 0.707107
vn -0.707107 0.000000 0.707107
vn -1.000000 0.000000 0.000000
vn -1.000000 0.000000 0.000000
vn -0.707107 0.000000 -0.707107
vn -0.707107 0.000000 -0.707107
vn -0.016434 0.000000 -0.999865
vn 0.078519 0.000000 -0.996913
vn -0.012159 0.000000 -0.999926
vn 0.051977 0.000000 -0.998648
vn -0.036491 0.000000 -0.999334
vn -0.127993 0.000000 -0.991775
vn 0.127993 0.000000 0.991775
vn -0.051977 -0.000000 0.998648
vn 0.036491 0.000000 0.999334
vn 0.012159 -0.000000 0.999926
vn 0.016434 0.000000 0.999865
vn -0.078519 0.000000 0.996913
vn 0.150668 0.000000 -0.988585
vn -0.150668 0.000000 0.988584
vn -0.000000 1.000000 0.000000
vn -0.000000 1.000000 0.000000
vn -0.000000 1.000000 0.000000
vn -0.000000 1.000000 0.000000
vn -1.000000 0.000000 0.000000
vn -1.000000 0.000000 0.000000
vn -1.000000 0.000000 0.000000
vn -1.000000 0.000000 0.000000
vn -1.000000 0.000000 0.000000
vn -1.000000 0.000000 0.000000
vn -1.000000 0.000000 0.000000
vn -1.000000 0.000000 0.000000
vn 0.000000 1.000000 0.000000
vn 0.000000 1.000000 0.000000
vn 0.000000 1.000000 0.000000
vn 0.000000 1.000000 0.000000
vn 1.000000 0.000000 0.000000
vn 1.000000 0.000000 0.000000
vn 1.000000 0.000000 0.000000
vn 1.000000 0.000000 0.000000
vn 1.000000 0.000000 0.000000
vn 1.000000 0.000000 0.000000
vn 1.000000 0.000000 0.000000
vn 1.000000 0.000000 0.000000
vn -0.000000 1.000000 0.000000
vn -0.000000 1.000000 0.000000
vn -0.000000 1.000000 0.000000
vn -0.000000 1.000000 0.000000
vn 1.000000 0.000000 -0.000000
vn 1.000000 0.000000 -0.000000
vn 1.000000 0.000000 -0.000000
vn 1.000000 0.000000 -0.000000
vn 0.000000 1.000000 -0.000000
vn 0.000000 1.000000 -0.000000
vn 0.000000 1.000000 -0.000000
vn 0.000000 1.000000 -0.000000
vn 1.000000 0.000000 0.000000
vn 1.000000 0.000000 0.000000
vn 1.000000 0.000000 0.000000
vn 1.000000 0.000000 0.000000
vn 0.000000 1.000000 0.000000
vn 0.000000 1.000000 0.000000
vn 0.000000 1.000000 0.000000
vn 0.000000 1.000000 0.000000
vn 1.000000 0.000000 -0.000000
vn 1.000000 0.000000 -0.000000
vn 1.000000 0.000000 -0.000000
vn 1.000000 0.000000 -0.000000
vn 0.000000 1.000000 0.000000
vn 0.000000 1.000000 0.000000
vn 0.000000 1.000000 0.000000
vn 0.000000 1.000000 0.000000
vn 0.000000 1.000000 0.000000
vn 0.000000 1.000000 0.000000
vn 0.000000 1.000000 0.000000
vn 0.000000 1.000000 0.000000
s off
g wall2
f 1/1/1 3/2/2 7/3/3 9/16/4
s 1
f 2/5/5 1/4/6 17/26/7 18/28/8
s 2
f 3/19/9 2/5/10 77/93/11 78/94/12
s off
f 4/6/13 6/7/14 10/14/15 12/8/16
f 5/15/17 4/9/18 88/106/19 89/107/20
s 3
f 79/95/21 80/97/22 8/12/23 7/10/24
s off
f 86/121/25 87/104/26 12/11/27 11/13/28
s 4
f 9/16/29 8/12/30 25/35/31 26/36/32
s 5
f 2/5/33 18/28/34 94/112/35 77/93/36
s 6
f 80/97/37 81/98/38 25/35/39 8/12/40
s 7
f 9/16/41 26/36/42 17/27/43 1/1/44
s off
f 4/9/45 12/17/46 87/105/47 88/106/48
s 8
f 7/18/49 3/19/50 78/94/51 79/96/52
s off
f 1/4/53 2/5/54 3/19/55
f 4/9/56 5/15/57 6/20/58
f 7/10/59 8/12/60 9/16/61
f 10/14/62 11/13/63 12/11/64
s 1
f 47/60/65 48/61/66 6/20/67 5/15/68
s 5
f 89/107/69 90/108/70 47/60/71 5/15/72
s 6
f 50/64/73 85/119/74 86/121/75 11/13/76
s 4
f 49/63/77 50/64/78 11/13/79 10/14/80
s 7
f 48/62/81 49/63/82 10/14/83 6/7/84
s 1
f 18/28/8 17/26/7 28/38/85 27/37/86
s 7
f 17/27/43 26/36/42 29/40/87 28/39/88
s 4
f 26/36/32 25/35/31 30/41/89 29/40/90
s 6
f 25/35/39 81/98/38 82/99/91 30/41/92
f 24/137/93 23/136/94 32/134/95 31/135/96
s off
f 23/136/97 22/32/98 33/44/99 32/134/100
f 22/32/101 21/31/102 34/45/103 33/44/104
f 21/31/105 20/30/106 35/46/107 34/45/108
s 5
f 20/30/109 19/29/110 36/47/111 35/46/112
f 93/111/113 94/112/35 18/28/34 27/37/114
s 1
f 27/37/86 28/38/85 38/49/115 37/48/116
s 7
f 28/39/88 29/40/87 39/51/117 38/50/118
s 4
f 29/40/90 30/41/89 40/52/119 39/51/120
s 6
f 30/41/92 82/99/91 83/100/121 40/52/122
s 5
f 92/110/123 93/111/113 27/37/114 37/48/124
s 1
f 37/48/116 38/49/115 44/56/125 43/55/126
s 7
f 38/50/118 39/51/117 45/58/127 44/57/128
s 4
f 39/51/120 40/52/119 46/59/129 45/58/130
s 6
f 40/52/122 83/100/121 84/101/131 46/59/132
s 5
f 91/109/133 92/110/123 37/48/124 43/55/134
s 1
f 43/55/126 44/56/125 48/61/66 47/60/65
s 7
f 44/57/128 45/58/127 49/63/82 48/62/81
s 4
f 45/58/130 46/59/129 50/64/78 49/63/77
s 6
f 46/59/132 84/101/131 85/119/74 50/64/73
s 5
f 90/108/70 91/109/133 43/55/134 47/60/71
s 2
f 52/66/135 51/65/136 13/139/137 14/22/138
s 8
f 53/68/139 52/66/140 14/22/141 15/24/142
s 3
f 15/23/143 16/25/144 54/69/145 53/67/146
s 6
f 16/25/147 24/137/93 55/70/148 54/69/149
f 56/71/150 55/70/148 24/137/93 31/135/96
f 57/129/151 56/71/150 31/135/96 41/130/152
s 5
f 36/47/111 61/76/153 60/128/154 42/131/155
f 19/29/110 62/77/156 61/76/153 36/47/111
f 51/65/157 62/77/156 19/29/110 13/139/158
s 2
f 64/79/159 63/78/160 51/65/136 52/66/135
s 8
f 65/81/161 64/79/162 52/66/140 53/68/139
s 3
f 53/67/146 54/69/145 66/82/163 65/80/164
s 6
f 54/69/149 55/70/148 67/83/165 66/82/166
f 68/84/167 67/83/165 55/70/148 56/71/150
f 69/85/168 68/84/167 56/71/150 57/129/151
f 70/125/169 69/85/168 57/129/151 58/126/170
s 5
f 59/127/171 60/128/154 74/90/172 73/124/173
f 60/128/154 61/76/153 75/91/174 74/90/172
f 61/76/153 62/77/156 76/92/175 75/91/174
f 63/78/176 76/92/175 62/77/156 51/65/157
s 2
f 78/94/12 77/93/11 63/78/160 64/79/159
s 8
f 79/96/52 78/94/51 64/79/162 65/81/161
s 3
f 65/80/164 66/82/163 80/97/22 79/95/21
s 6
f 66/82/166 67/83/165 81/98/38 80/97/37
f 82/99/91 81/98/38 67/83/165 68/84/167
f 83/100/121 82/99/91 68/84/167 69/85/168
f 84/101/131 83/100/121 69/85/168 70/125/169
f 85/119/74 84/101/131 70/125/169 71/122/177
s 5
f 72/123/178 73/124/173 91/109/133 90/108/70
f 73/124/173 74/90/172 92/110/123 91/109/133
f 74/90/172 75/91/174 93/111/113 92/110/123
f 75/91/174 76/92/175 94/112/35 93/111/113
f 77/93/36 94/112/35 76/92/175 63/78/176
s off
f 24/34/179 16/114/180 13/21/181 19/29/182
f 19/29/183 20/30/184 23/33/185 24/34/186
f 20/30/187 21/140/188 22/138/189 23/33/190
f 14/113/191 13/21/192 16/114/193 15/115/194
f 31/42/195 32/43/196 35/46/197 36/47/198
f 32/43/199 33/133/200 34/132/201 35/46/202
f 41/53/203 31/42/204 36/47/205 42/54/206
f 42/54/207 60/75/208 57/72/209 41/53/210
f 58/73/211 57/72/212 60/75/213 59/74/214
f 59/74/215 73/89/216 70/86/217 58/73/218
f 73/89/219 72/88/220 71/87/221 70/86/222
f 72/88/223 90/118/224 85/102/225 71/87/226
f 86/103/227 85/120/228 90/108/229 89/107/230
f 89/107/231 88/116/232 87/117/233 86/103/234
