# This file uses centimeters as units for non-parametric coordinates.

g default
v 0.103972 0.000000 0.813350
v 0.103972 0.203312 1.016662
v 0.103972 9.111754 1.016662
v 0.103972 9.315066 0.813350
v 0.103972 9.315066 -0.813350
v 0.103972 9.111754 -1.016662
v 0.103972 0.203312 -1.016662
v 0.103972 0.000000 -0.813350
v 1.628065 0.203312 1.016662
v 1.628065 0.000000 0.813350
v 1.628065 0.000000 -0.813350
v 1.628065 0.203312 -1.016662
v -7.192595 0.000000 0.813350
v -7.192595 0.203312 1.016662
v -7.192595 0.203312 -1.016662
v -7.192595 0.000000 -0.813350
v -7.192595 2.030683 -1.016662
v 0.103972 2.030683 -1.016662
v 1.628065 2.030683 -1.016662
v 1.628065 2.030683 1.016662
v 0.103972 2.030683 1.016662
v -7.192594 2.030683 1.016662
v -5.781694 0.203312 1.016662
v -5.781694 0.000000 0.813350
v -5.781694 0.000000 -0.813350
v -5.781694 0.203312 -1.016662
v -5.781694 2.030683 -1.016662
v -5.781694 2.030683 1.016662
v -4.250262 0.203312 1.016662
v -4.250261 0.000000 0.813350
v -4.250262 0.000000 -0.813350
v -4.250261 0.203312 -1.016662
v -4.250261 2.030683 -1.016662
v -4.250261 2.030683 1.016662
v -7.192594 3.470541 1.016662
v -5.781694 3.470541 1.016662
v -4.250261 3.470541 1.016662
v 0.103972 3.470541 1.016662
v 1.628065 3.470541 1.016662
v 1.628065 3.470541 -1.016662
v 0.103972 3.470541 -1.016662
v -4.250261 3.470541 -1.016662
v -5.781694 3.470541 -1.016662
v -7.192595 3.470541 -1.016662
v -7.192594 4.925387 1.016662
v -5.781694 4.925387 1.016662
v -4.250261 4.925387 1.016662
v 0.103972 4.925387 1.016662
v 1.628065 4.925387 1.016662
v 1.628065 4.925387 -1.016662
v 0.103972 4.925387 -1.016662
v -4.250261 4.925387 -1.016662
v -5.781694 4.925387 -1.016662
v -7.192595 4.925387 -1.016662
v -2.824925 0.203312 1.016662
v -2.824924 0.000000 0.813350
v -2.824925 0.000000 -0.813350
v -2.824924 0.203312 -1.016662
v -2.824924 2.030683 -1.016662
v -2.824924 3.470541 -1.016662
v -2.824924 4.925387 -1.016662
v -2.824925 9.111754 -1.016662
v -2.824924 9.315066 -0.813350
v -2.824925 9.315066 0.813350
v -2.824924 9.111754 1.016662
v -2.824924 4.925387 1.016662
v -2.824924 3.470541 1.016662
v -2.824924 2.030683 1.016662
v -5.781694 6.357921 1.016662
v -4.250261 6.357921 1.016662
v -2.824924 6.357921 1.016662
v 0.103972 6.357920 1.016662
v 1.628065 6.357921 1.016662
v 1.628065 6.357920 -1.016662
v 0.103972 6.357921 -1.016662
v -2.824924 6.357920 -1.016662
v -4.250261 6.357920 -1.016662
v -5.781694 6.357920 -1.016662
v -4.250261 7.743821 1.016662
v -2.824924 7.743821 1.016662
v 0.103972 7.743820 1.016662
v 1.628065 7.743821 1.016662
v 1.628065 7.743820 -1.016662
v 0.103972 7.743821 -1.016662
v -2.824924 7.743820 -1.016662
v -4.250261 7.743820 -1.016662
vt 1.002706 1.175056
vt 1.002706 -0.775950
vt 1.002706 1.157421
vt 1.002707 0.384849
vt 1.002706 0.349464
vt 1.002707 0.207679
vt 1.002707 0.154920
vt 1.002706 -0.599586
vt 1.002706 -0.634856
vt 0.872457 1.157421
vt 0.872457 1.175056
vt 0.872457 -0.775950
vt 0.872458 -0.634845
vt 0.824336 1.813065
vt 1.626272 1.175056
vt 1.626272 -0.775950
vt 1.253010 1.775830
vt 1.626271 -0.622467
vt 1.626270 -0.637713
vt 1.431672 1.617944
vt 0.824339 1.523497
vt 0.824338 1.655180
vt 1.002691 1.655182
vt 1.002692 1.523500
vt 1.253010 1.617944
vt 1.505696 1.157421
vt 1.505696 1.175056
vt 1.505696 -0.775950
vt 1.505696 -0.634856
vt 1.505696 -0.599586
vt 1.431672 1.496042
vt 1.253010 1.496042
vt 1.374819 1.157421
vt 1.374819 1.175056
vt 1.374820 -0.775950
vt 1.374820 -0.634856
vt 1.374820 -0.599586
vt 1.374820 -0.441087
vt 1.374820 0.998921
vt 1.253010 1.249735
vt 1.253010 1.371637
vt 1.374820 0.874033
vt 1.002694 1.399095
vt 1.002696 1.267413
vt 0.824343 1.267411
vt 0.824341 1.399093
vt 1.374820 -0.316198
vt 1.431672 1.371638
vt 1.431672 1.249735
vt 1.253010 1.124036
vt 1.253010 1.002133
vt 1.374820 0.747845
vt 1.002699 1.010032
vt 1.002697 1.141714
vt 0.824344 1.141711
vt 0.824346 1.010029
vt 1.374820 -0.190010
vt 1.431672 1.002133
vt 1.431672 1.124036
vt 1.253010 1.157421
vt 1.253010 1.175056
vt 1.253010 -0.775950
vt 1.253010 -0.634856
vt 1.253010 -0.599586
vt 1.253010 -0.441087
vt 1.253010 -0.316198
vt 1.253010 -0.190010
vt 1.431672 0.384964
vt 1.253009 0.206210
vt 1.253010 0.349464
vt 1.253010 0.384849
vt 1.253010 0.747845
vt 1.253010 0.874033
vt 1.253010 0.998921
vt 1.253010 0.878362
vt 1.253010 0.746046
vt 1.253010 0.623592
vt 1.002700 0.886260
vt 1.002702 0.754578
vt 0.824349 0.754576
vt 0.824347 0.886258
vt 1.253010 -0.065757
vt 1.431672 0.746046
vt 1.431672 0.878362
vt 1.253010 0.626303
vt 1.253010 0.503269
vt 1.002706 0.503268
vt 1.002704 0.634836
vt 0.824351 0.634833
vt 0.824352 0.503151
vt 1.431672 0.503154
vt 1.431672 0.626303
vt 1.002707 0.367397
vt 0.824354 0.384961
vt 0.824354 0.367395
vt 1.002689 1.813067
vt 1.002689 1.830634
vt 0.824335 1.830631
vt 1.253009 1.793396
vt 1.431672 1.775830
vt 1.431672 1.793396
vt 1.253010 0.367397
vt 1.431672 0.367397
vt 1.253010 0.054451
vt 1.374820 0.054451
vt 0.872457 0.054451
vt 1.002706 0.054451
vt 0.872457 0.503383
vt 1.374820 0.503384
vt 1.253010 0.155952
vt 0.872457 0.623592
vt 1.374820 0.623592
vt 1.374820 -0.065757
vt 1.505696 -0.065757
vt 0.872457 -0.065757
vt 1.002706 -0.065757
vt 1.002706 0.623592
vt 1.505696 0.623592
vt 1.002706 -0.190010
vt 1.505696 0.747845
vt 1.505696 -0.190010
vt 1.626272 -0.190010
vt 0.872457 -0.190010
vt 1.002706 0.747845
vt 0.872457 0.747845
vt 1.626272 0.747845
vt 1.626272 -0.316198
vt 0.872457 0.874033
vt 1.505696 -0.316198
vt 0.872457 -0.316198
vt 1.002706 -0.316198
vt 1.002706 0.874033
vt 1.626272 0.874033
vt 1.505696 0.874033
vt 1.002706 -0.441087
vt 1.505696 0.998921
vt 1.505696 -0.441087
vt 1.626272 0.998921
vt 0.872457 0.998921
vt 1.002706 0.998921
vt 0.872457 -0.441087
vt 1.626272 -0.441087
vt 1.626272 1.157421
vt 0.872458 -0.622464
vn -0.000000 -0.707107 0.707107
vn -0.000000 -0.707107 0.707107
vn 0.000000 -0.707107 0.707107
vn 0.000000 -0.707107 0.707107
vn 0.000000 -1.000000 0.000000
vn 0.000000 -1.000000 0.000000
vn 0.000000 -1.000000 0.000000
vn 0.000000 -1.000000 0.000000
vn 0.000000 -0.707107 -0.707107
vn 0.000000 -0.707107 -0.707107
vn 0.000000 -0.707107 -0.707107
vn 0.000000 -0.707107 -0.707107
vn 0.000000 0.000000 -1.000000
vn 0.000000 0.000000 -1.000000
vn 0.000000 0.000000 -1.000000
vn 0.000000 0.000000 -1.000000
vn 0.000000 0.000000 1.000000
vn 0.000000 0.000000 1.000000
vn 0.000000 0.000000 1.000000
vn 0.000000 0.000000 1.000000
vn -0.000000 -0.707107 0.707107
vn -0.000000 -0.707107 0.707107
vn 0.000000 0.000000 1.000000
vn 0.000000 0.000000 1.000000
vn 0.000000 0.707107 0.707107
vn 0.000000 0.707107 0.707107
vn 0.000000 0.707107 0.707107
vn 0.000000 0.707107 0.707107
vn 0.000000 1.000000 0.000000
vn 0.000000 1.000000 0.000000
vn 0.000000 1.000000 0.000000
vn 0.000000 1.000000 0.000000
vn -0.000000 0.707107 -0.707107
vn -0.000000 0.707107 -0.707107
vn -0.000000 0.707107 -0.707107
vn -0.000000 0.707107 -0.707107
vn 0.000000 0.000000 -1.000000
vn 0.000000 0.000000 -1.000000
vn 0.000000 -0.707107 -0.707107
vn 0.000000 -0.707107 -0.707107
vn 0.000000 -1.000000 0.000000
vn 0.000000 -1.000000 0.000000
vn 0.000000 0.000000 -1.000000
vn 0.000000 0.000000 -1.000000
vn 0.000000 0.000000 -1.000000
vn 0.000000 0.000000 -1.000000
vn 0.000000 0.000000 1.000000
vn 0.000000 0.000000 1.000000
vn 0.000000 0.000000 1.000000
vn 0.000000 0.000000 1.000000
vn 0.000000 -0.707107 0.707107
vn 0.000000 -0.707107 0.707107
vn 0.000000 -0.707107 0.707107
vn 0.000000 -0.707107 0.707107
vn 0.000000 -1.000000 0.000000
vn 0.000000 -1.000000 0.000000
vn 0.000000 -1.000000 0.000000
vn 0.000000 -1.000000 0.000000
vn 0.000000 -0.707107 -0.707107
vn 0.000000 -0.707107 -0.707107
vn 0.000000 -0.707107 -0.707107
vn 0.000000 -0.707107 -0.707107
vn -0.000000 0.000000 -1.000000
vn -0.000000 0.000000 -1.000000
vn 0.000000 0.000000 -1.000000
vn 0.000000 0.000000 -1.000000
vn 0.000000 0.000000 1.000000
vn 0.000000 0.000000 1.000000
vn 0.000000 0.000000 1.000000
vn 0.000000 0.000000 1.000000
vn 0.000000 -0.707107 0.707107
vn 0.000000 -0.707107 0.707107
vn 0.000000 -1.000000 0.000000
vn 0.000000 -1.000000 0.000000
vn 0.000000 -0.707107 -0.707107
vn 0.000000 -0.707107 -0.707107
vn 0.000000 0.000000 -1.000000
vn 0.000000 0.000000 -1.000000
vn 0.000000 0.000000 1.000000
vn 0.000000 0.000000 1.000000
vn 0.000000 0.000000 1.000000
vn 0.000000 0.000000 1.000000
vn 0.000000 0.000000 1.000000
vn 0.000000 0.000000 1.000000
vn 0.000000 0.000000 -1.000000
vn 0.000000 0.000000 -1.000000
vn 0.000000 0.000000 -1.000000
vn 0.000000 0.000000 -1.000000
vn 0.000000 0.000000 1.000000
vn 0.000000 0.000000 1.000000
vn 0.000000 0.000000 1.000000
vn 0.000000 0.000000 1.000000
vn 0.000000 0.000000 1.000000
vn 0.000000 0.000000 1.000000
vn 0.000000 0.000000 1.000000
vn 0.000000 0.000000 1.000000
vn 0.000000 0.000000 -1.000000
vn 0.000000 0.000000 -1.000000
vn 0.000000 0.000000 -1.000000
vn 0.000000 0.000000 -1.000000
vn 0.000000 0.000000 -1.000000
vn 0.000000 0.000000 -1.000000
vn 0.000000 0.000000 -1.000000
vn 0.000000 0.000000 -1.000000
vn 0.000000 0.000000 1.000000
vn 0.000000 0.000000 1.000000
vn 0.000000 0.000000 1.000000
vn 0.000000 0.000000 1.000000
vn 0.000000 0.000000 -1.000000
vn 0.000000 0.000000 -1.000000
vn 0.000000 0.000000 -1.000000
vn 0.000000 0.000000 -1.000000
vn 0.000000 0.000000 1.000000
vn 0.000000 0.000000 1.000000
vn 0.000000 0.000000 1.000000
vn 0.000000 0.000000 -1.000000
vn 0.000000 0.000000 -1.000000
vn 0.000000 0.000000 -1.000000
vn -1.000000 0.000000 0.000000
vn -1.000000 0.000000 0.000000
vn -1.000000 0.000000 0.000000
vn -1.000000 0.000000 0.000000
vn 1.000000 0.000000 0.000000
vn 1.000000 0.000000 0.000000
vn 1.000000 0.000000 0.000000
vn 1.000000 0.000000 0.000000
vn 1.000000 0.000000 0.000000
vn 1.000000 0.000000 0.000000
vn 1.000000 0.000000 0.000000
vn 1.000000 0.000000 0.000000
vn -1.000000 0.000000 0.000000
vn -1.000000 0.000000 0.000000
vn -1.000000 0.000000 0.000000
vn -1.000000 0.000000 0.000000
vn -1.000000 0.000000 0.000000
vn -1.000000 0.000000 0.000000
vn -1.000000 0.000000 0.000000
vn -1.000000 0.000000 0.000000
vn 0.000000 1.000000 -0.000001
vn 0.000000 1.000000 -0.000001
vn 0.000000 1.000000 -0.000001
vn 0.000000 1.000000 -0.000001
vn 0.000000 1.000000 -0.000000
vn 0.000000 1.000000 -0.000000
vn 0.000000 1.000000 -0.000000
vn 0.000000 1.000000 -0.000000
vn -1.000000 0.000000 0.000000
vn -1.000000 0.000000 0.000000
vn -1.000000 0.000000 0.000000
vn -1.000000 0.000000 0.000000
vn 0.000000 1.000000 -0.000000
vn 0.000000 1.000000 -0.000000
vn 0.000000 1.000000 -0.000000
vn 0.000000 1.000000 -0.000000
vn -1.000000 0.000000 0.000000
vn -1.000000 0.000000 0.000000
vn -1.000000 0.000000 0.000000
vn -1.000000 0.000000 0.000000
vn 0.000000 -1.000000 0.000000
vn 0.000000 -1.000000 0.000000
vn 0.000000 -1.000000 0.000000
vn 0.000000 -1.000000 0.000000
vn -1.000000 0.000000 0.000000
vn -1.000000 0.000000 0.000000
vn -1.000000 0.000000 0.000000
vn -1.000000 0.000000 0.000000
vn 0.000000 1.000000 0.000000
vn 0.000000 1.000000 0.000000
vn 0.000000 1.000000 0.000000
vn 0.000000 1.000000 0.000000
vn 0.000000 1.000000 0.000000
vn 0.000000 1.000000 0.000000
vn 0.000000 1.000000 0.000000
vn 0.000000 1.000000 0.000000
vn 1.000000 0.000000 -0.000000
vn 1.000000 0.000000 -0.000000
vn 1.000000 0.000000 -0.000000
vn 1.000000 0.000000 -0.000000
vn 0.000000 -1.000000 0.000000
vn 0.000000 -1.000000 0.000000
vn 0.000000 -1.000000 0.000000
vn 0.000000 -1.000000 0.000000
vn 1.000000 0.000000 0.000000
vn 1.000000 0.000000 0.000000
vn 1.000000 0.000000 0.000000
vn 1.000000 0.000000 0.000000
vn 0.000000 1.000000 0.000000
vn 0.000000 1.000000 0.000000
vn 0.000000 1.000000 0.000000
vn 0.000000 1.000000 0.000000
vn 1.000000 0.000000 0.000000
vn 1.000000 0.000000 0.000000
vn 1.000000 0.000000 0.000000
vn 1.000000 0.000000 0.000000
vn 0.000000 -1.000000 0.000000
vn 0.000000 -1.000000 0.000000
vn 0.000000 -1.000000 0.000000
vn 0.000000 -1.000000 0.000000
vn 1.000000 0.000000 0.000000
vn 1.000000 0.000000 0.000000
vn 1.000000 0.000000 0.000000
vn 1.000000 0.000000 0.000000
vn 0.000000 1.000000 0.000000
vn 0.000000 1.000000 0.000000
vn 0.000000 1.000000 0.000000
vn 0.000000 1.000000 0.000000
vn 1.000000 0.000000 0.000000
vn 1.000000 0.000000 0.000000
vn 1.000000 0.000000 0.000000
vn 1.000000 0.000000 0.000000
vn 1.000000 0.000000 0.000000
vn 1.000000 0.000000 0.000000
vn 1.000000 0.000000 0.000000
vn 1.000000 0.000000 0.000000
vn -1.000000 0.000003 0.000000
vn -1.000000 0.000003 0.000000
vn -1.000000 0.000003 0.000000
vn -1.000000 0.000003 0.000000
vn -1.000000 0.000000 0.000000
vn -1.000000 0.000000 0.000000
vn -1.000000 0.000000 0.000000
vn -1.000000 0.000000 0.000000
s 1
g wallPillar
f 2/3/1 1/1/2 10/11/3 9/10/4
s 2
f 1/2/5 8/9/6 11/13/7 10/12/8
s 3
f 8/9/9 7/8/10 12/144/11 11/13/12
s 4
f 7/8/13 18/135/14 19/141/15 12/144/16
s 5
f 20/139/17 21/140/18 2/3/19 9/10/20
s 1
f 55/60/21 56/61/22 1/1/2 2/3/1
s 5
f 21/140/18 68/74/23 55/60/24 2/3/19
s off
f 64/70/25 65/71/26 3/4/27 4/5/28
f 63/69/29 64/70/30 4/5/31 5/6/32
f 62/110/33 63/69/34 5/6/35 6/7/36
s 4
f 58/64/37 59/65/38 18/135/14 7/8/13
s 3
f 57/63/39 58/64/40 7/8/10 8/9/9
s 2
f 56/62/41 57/63/42 8/9/6 1/2/5
s 4
f 84/107/43 85/104/44 62/110/45 6/7/46
s 5
f 65/71/47 80/86/48 81/87/49 3/4/50
s 1
f 14/143/51 13/15/52 24/27/53 23/26/54
s 2
f 13/16/55 16/19/56 25/29/57 24/28/58
s 3
f 16/19/59 15/18/60 26/30/61 25/29/62
s 4
f 15/18/63 17/142/64 27/137/65 26/30/66
s 5
f 23/26/67 28/136/68 22/138/69 14/143/70
s 1
f 23/26/54 24/27/53 30/34/71 29/33/72
s 2
f 24/28/58 25/29/57 31/36/73 30/35/74
s 3
f 25/29/62 26/30/61 32/37/75 31/36/76
s 4
f 26/30/66 27/137/65 33/38/77 32/37/78
s 5
f 29/33/79 34/39/80 28/136/68 23/26/67
f 37/42/81 36/134/82 28/136/68 34/39/80
f 38/132/83 67/73/84 68/74/23 21/140/18
s 4
f 18/135/14 59/65/38 60/66/85 41/131/86
f 43/129/87 42/47/88 33/38/77 27/137/65
s 5
f 46/120/89 45/126/90 35/133/91 36/134/82
f 47/52/92 46/120/89 36/134/82 37/42/81
f 48/124/93 66/72/94 67/73/84 38/132/83
f 49/125/95 48/124/93 38/132/83 39/128/96
s 4
f 40/130/97 41/131/86 51/119/98 50/123/99
f 41/131/86 60/66/85 61/67/100 51/119/98
f 53/121/101 52/57/102 42/47/88 43/129/87
f 54/122/103 53/121/101 43/129/87 44/127/104
s 1
f 29/33/72 30/34/71 56/61/22 55/60/21
s 2
f 30/35/74 31/36/73 57/63/42 56/62/41
s 3
f 31/36/76 32/37/75 58/64/40 57/63/39
s 4
f 32/37/78 33/38/77 59/65/38 58/64/37
f 60/66/85 59/65/38 33/38/77 42/47/88
f 61/67/100 60/66/85 42/47/88 52/57/102
s 5
f 67/73/84 66/72/94 47/52/92 37/42/81
f 68/74/23 67/73/84 37/42/81 34/39/80
f 55/60/24 68/74/23 34/39/80 29/33/79
f 70/112/105 69/118/106 46/120/89 47/52/92
f 71/77/107 70/112/105 47/52/92 66/72/94
f 72/117/108 71/77/107 66/72/94 48/124/93
s 4
f 51/119/98 61/67/100 76/82/109 75/116/110
f 77/113/111 76/82/109 61/67/100 52/57/102
f 78/114/112 77/113/111 52/57/102 53/121/101
s 5
f 80/86/48 79/109/113 70/112/105 71/77/107
f 81/87/49 80/86/48 71/77/107 72/117/108
f 82/108/114 81/87/49 72/117/108 73/111/115
s 4
f 74/115/116 75/116/110 84/107/43 83/106/117
f 75/116/110 76/82/109 85/104/44 84/107/43
f 86/105/118 85/104/44 76/82/109 77/113/111
s off
f 80/86/119 65/71/120 62/68/121 85/91/122
f 84/90/123 6/94/124 3/4/125 81/87/126
f 12/14/127 19/22/128 20/23/129 9/96/130
f 14/17/131 22/25/132 17/20/133 15/100/134
f 86/92/135 77/83/136 70/76/137 79/85/138
f 79/85/139 80/86/140 85/91/141 86/92/142
f 77/83/143 78/84/144 69/75/145 70/76/146
f 78/84/147 53/58/148 46/51/149 69/75/150
f 53/58/151 54/59/152 45/50/153 46/51/154
f 54/59/155 44/49/156 35/40/157 45/50/158
f 44/49/159 43/48/160 36/41/161 35/40/162
f 43/48/163 27/31/164 28/32/165 36/41/166
f 27/31/167 17/20/168 22/25/169 28/32/170
f 81/87/171 82/88/172 83/89/173 84/90/174
f 82/88/175 73/79/176 74/80/177 83/89/178
f 73/79/179 72/78/180 75/81/181 74/80/182
f 72/78/183 48/53/184 51/56/185 75/81/186
f 48/53/187 49/54/188 50/55/189 51/56/190
f 49/54/191 39/44/192 40/45/193 50/55/194
f 39/44/195 38/43/196 41/46/197 40/45/198
f 38/43/199 21/24/200 18/21/201 41/46/202
f 21/24/203 20/23/204 19/22/205 18/21/206
f 4/93/207 3/4/208 6/94/209 5/95/210
f 9/96/211 10/97/212 11/98/213 12/14/214
f 13/99/215 14/17/216 15/100/217 16/101/218
f 65/71/219 64/102/220 63/103/221 62/68/222
