# This file uses centimeters as units for non-parametric coordinates.

g default
v 9.489838 0.203312 0.396138
v 9.286526 0.203312 0.602708
v 9.286526 -0.000000 0.399262
v 9.286526 -0.000000 -1.227438
v 9.286526 0.203312 -1.430616
v 9.489838 0.203312 -1.230562
v 9.286526 2.026674 -1.429598
v 9.489838 2.026674 -1.230562
v 9.489838 2.026674 0.396138
v 9.286526 2.026674 0.603726
v 0.110379 -0.000000 0.585165
v 0.110379 0.203312 0.782799
v 0.110379 2.026674 0.742288
v 0.110379 3.386216 0.725183
v 0.110379 4.864481 0.720057
v 0.110379 6.267836 0.728353
v 0.110379 6.267836 -1.304971
v 0.110379 4.864481 -1.313267
v 0.110379 3.386216 -1.308141
v 0.110379 2.026674 -1.291036
v 0.110379 0.203312 -1.250525
v 0.110379 -0.000000 -1.041535
v 3.098059 0.203312 1.021762
v 3.098059 -0.000000 0.822675
v 3.098059 0.000000 -0.804025
v 3.098059 0.203312 -1.011561
v 3.098059 2.026674 -1.041796
v 3.098059 3.386216 -1.054611
v 3.098059 4.864481 -1.058456
v 3.098059 6.267836 -1.052234
v 3.098059 7.797343 -1.034802
v 3.098059 9.111754 -1.011561
v 3.098059 9.315066 -0.804025
v 3.098059 9.315066 0.822675
v 3.098060 9.111753 1.021763
v 3.098059 7.797343 0.998522
v 3.098059 6.267836 0.981090
v 3.098059 4.864481 0.974868
v 3.098059 3.386216 0.978713
v 3.098059 2.026674 0.991528
v 4.519729 0.203312 1.375795
v 4.519730 0.000000 1.173784
v 4.519729 0.000000 -0.452915
v 4.519730 0.203312 -0.657529
v 4.519730 2.026674 -0.667072
v 4.519729 3.386216 -0.671233
v 4.519729 4.864481 -0.672495
v 4.519729 6.267836 -0.670457
v 4.519729 7.797343 -0.664830
v 4.519729 9.111754 -0.657529
v 4.519730 9.315066 -0.452915
v 4.519729 9.315066 1.173784
v 4.519730 9.111753 1.375795
v 4.519730 7.797343 1.368494
v 4.519730 6.267836 1.362867
v 4.519730 4.864481 1.360829
v 4.519730 3.386216 1.362090
v 4.519729 2.026674 1.366251
v 5.985614 0.203312 1.372371
v 5.985615 0.000000 1.168107
v 5.985614 0.000000 -0.458593
v 5.985615 0.203312 -0.660953
v 5.985615 2.026674 -0.654468
v 5.985614 3.386216 -0.651887
v 5.985614 4.864481 -0.651131
v 5.985614 6.267836 -0.652358
v 5.985614 7.797343 -0.655917
v 5.985614 9.111754 -0.660952
v 5.985615 9.315065 -0.458593
v 5.985614 9.315066 1.168107
v 5.985615 9.111753 1.372371
v 5.985615 7.797343 1.377406
v 5.985615 6.267836 1.380965
v 5.985615 4.864481 1.382193
v 5.985615 3.386216 1.381437
v 5.985614 2.026674 1.378856
v 7.523951 0.203312 0.964141
v 7.523952 -0.000000 0.759454
v 7.523951 0.000000 -0.867245
v 7.523952 0.203312 -1.069182
v 7.523952 2.026674 -1.059553
v 7.523951 3.386216 -1.055578
v 7.523951 4.864481 -1.054397
v 7.523951 6.267836 -1.056310
v 7.523951 7.797343 -1.061748
v 7.523952 7.797343 0.971575
v 7.523952 6.267836 0.977013
v 7.523952 4.864481 0.978927
v 7.523952 3.386216 0.977746
v 7.523951 2.026674 0.973771
v 8.972013 0.203312 0.626307
v 8.972013 -0.000000 0.422597
v 8.972013 -0.000000 -1.204103
v 8.972013 0.203312 -1.407017
v 8.972013 2.026674 -1.404153
v 8.972013 3.386216 -1.402934
v 8.972013 4.864481 -1.402568
v 8.972013 6.267836 -1.403161
v 8.972013 6.267836 0.630163
v 8.972013 4.864481 0.630756
v 8.972013 3.386216 0.630389
v 8.972013 2.026674 0.629170
v -4.266370 0.000000 1.045903
v -4.266370 0.203312 1.250566
v -4.266370 2.026674 1.259919
v -4.266370 3.386216 1.263726
v -4.266370 4.864481 1.264851
v -4.266370 4.864481 -0.768473
v -4.266370 3.386216 -0.769598
v -4.266370 2.026674 -0.773404
v -4.266370 0.203312 -0.782758
v -4.266370 0.000000 -0.580796
v -5.773958 -0.000000 0.600988
v -5.773958 0.203312 0.805402
v -5.773958 2.026674 0.813161
v -5.773958 3.386216 0.816384
v -5.773958 3.386216 -1.216940
v -5.773958 2.026674 -1.220163
v -5.773958 0.203312 -1.227922
v -5.773958 -0.000000 -1.025712
v -7.198652 -0.000000 0.396138
v -7.198652 0.203312 0.599450
v -7.198652 2.026674 0.599450
v -7.198652 2.026674 -1.433874
v -7.198652 0.203312 -1.433874
v -7.198652 -0.000000 -1.230562
vt 0.200588 -0.775950
vt 0.217963 -0.775950
vt 0.200588 -0.634856
vt 0.180531 1.157422
vt 0.200588 -0.599587
vt 0.217963 -0.599587
vt 0.217963 -0.634856
vt 0.217963 1.157421
vt 0.020057 1.157421
vt 0.217963 1.175055
vt 0.500049 -0.974663
vt 0.200599 -0.450191
vt 0.020060 0.999272
vt 0.180531 0.999269
vt 0.217963 0.999269
vt 1.002158 1.175056
vt 1.002159 -0.775950
vt 1.002158 1.157421
vt 1.002158 0.999269
vt 1.002158 0.881347
vt 1.802477 0.423450
vt 1.802479 0.544697
vt 1.626804 0.544699
vt 1.626802 0.423453
vt 1.002158 -0.323512
vt 1.002159 -0.441434
vt 1.002159 -0.599586
vt 1.002159 -0.634856
vt 0.746831 1.157421
vt 0.746831 1.175055
vt 0.746831 -0.775950
vt 0.746831 -0.634856
vt 0.746831 -0.599586
vt 0.746831 -0.441434
vt 0.746831 -0.323512
vt 0.746831 -0.195293
vt 1.626807 0.802829
vt 1.626809 0.934975
vt 1.626811 1.048537
vt 0.746831 0.208370
vt 0.746831 0.349464
vt 0.746831 0.384733
vt 1.802484 0.934972
vt 1.802482 0.802826
vt 0.746831 0.753127
vt 0.746831 0.881347
vt 0.746831 0.999269
vt 0.625335 1.157421
vt 0.625334 1.175055
vt 0.625335 -0.775950
vt 0.625335 -0.634856
vt 0.625335 -0.599586
vt 0.625335 -0.441434
vt 0.625335 -0.323512
vt 0.625335 -0.195293
vt 0.625335 -0.073571
vt 0.625335 0.059093
vt 0.625335 0.173101
vt 0.625335 0.208370
vt 0.625335 0.349464
vt 0.625335 0.384733
vt 0.625335 0.498741
vt 0.625335 0.631405
vt 0.625335 0.753127
vt 0.625335 0.881347
vt 0.625335 0.999269
vt 0.500060 1.157421
vt 0.500060 1.175055
vt 0.500060 -0.775950
vt 0.500060 -0.634856
vt 0.500060 -0.599586
vt 0.500060 -0.441434
vt 0.500060 -0.323512
vt 0.500060 -0.195293
vt 0.500060 -0.073571
vt 0.500060 0.059207
vt 0.500061 0.172997
vt 0.500061 0.208359
vt 0.500060 0.349464
vt 0.324386 0.172885
vt 0.324385 0.059323
vt 0.500060 0.631405
vt 0.500060 0.753127
vt 0.500060 0.881347
vt 0.500060 0.999269
vt 0.368593 1.157421
vt 0.368593 1.175055
vt 0.368593 -0.775950
vt 0.368593 -0.634856
vt 0.368593 -0.599587
vt 0.368593 -0.441434
vt 0.500052 -0.704919
vt 0.500053 -0.577200
vt 0.500057 -0.205734
vt 0.500059 -0.073588
vt 0.324384 -0.073586
vt 0.324382 -0.205733
vt 0.324379 -0.577198
vt 0.324377 -0.704917
vt 0.368593 0.999269
vt 0.244842 1.157421
vt 0.244842 1.175055
vt 0.244842 -0.775950
vt 0.244842 -0.634856
vt 0.244842 -0.599587
vt 0.500049 -0.947490
vt 0.500051 -0.830028
vt 0.500055 -0.452091
vt 0.500056 -0.330844
vt 0.324381 -0.330842
vt 0.324380 -0.452089
vt 0.324376 -0.830026
vt 0.324375 -0.947488
vt 1.376196 1.175056
vt 1.376196 -0.775950
vt 1.376196 1.157421
vt 1.376196 0.999269
vt 1.802470 -0.082410
vt 1.802472 0.045309
vt 1.626797 0.045311
vt 1.626796 -0.082408
vt 1.376196 -0.441434
vt 1.376196 -0.599586
vt 1.376196 -0.634856
vt 1.505035 1.175056
vt 1.505035 -0.775950
vt 1.505035 1.157421
vt 1.802467 -0.330124
vt 1.802469 -0.212663
vt 1.626794 -0.212660
vt 1.626792 -0.330122
vt 1.505035 -0.599586
vt 1.505035 -0.634856
vt 1.626789 1.175056
vt 1.626790 -0.775950
vt 1.802463 -0.610749
vt 1.802465 -0.453215
vt 1.626790 -0.447323
vt 1.626788 -0.616636
vt 1.626788 -0.637720
vt 1.626808 1.066100
vt 1.802485 1.048535
vt 1.802483 1.066103
vt 1.802465 -0.628312
vt 1.626791 -0.628315
vt 0.324374 -0.974661
vt 0.324376 -0.992229
vt 0.500051 -0.992227
vt 1.626789 1.157421
vt 1.626789 0.999269
vt 1.505035 -0.441434
vt 1.505035 -0.323512
vt 1.505035 0.999269
vt 1.505035 0.881347
vt 1.376196 0.881347
vt 1.376196 -0.195293
vt 1.376196 -0.323512
vt 1.376196 0.753127
vt 1.002158 0.753127
vt 0.746831 0.498741
vt 0.746831 0.631405
vt 0.746831 0.059093
vt 0.746831 0.173101
vt 0.746831 -0.073571
vt 1.002158 -0.073571
vt 1.002158 -0.195293
vt 1.002159 0.631405
vt 0.244842 0.881347
vt 0.244842 0.999269
vt 0.244842 0.631405
vt 0.244842 0.753127
vt 0.244842 -0.195293
vt 0.244842 -0.073571
vt 0.244842 -0.441435
vt 0.244842 -0.323513
vt 0.368593 -0.073571
vt 0.368593 -0.195293
vt 0.368593 -0.323513
vt 0.217965 -0.476411
vt 0.368593 0.753127
vt 0.368593 0.881347
vt 0.368593 0.498741
vt 0.368593 0.631405
vt 0.368593 0.059093
vt 0.500060 0.384733
vt 0.500060 0.498741
vt 0.324385 0.190449
vt 0.500059 0.190451
vn 0.707107 -0.707107 0.000000
vn 0.707107 -0.707107 0.000000
vn 0.707107 -0.707107 0.000000
vn 0.707107 -0.707107 0.000000
vn 0.713568 -0.000195 0.700586
vn 0.713568 -0.000195 0.700586
vn 0.713568 -0.000195 0.700586
vn 0.713568 -0.000195 0.700586
vn 0.700464 0.000199 -0.713688
vn 0.700464 0.000199 -0.713688
vn 0.700464 0.000199 -0.713688
vn 0.700464 0.000199 -0.713688
vn 1.000000 0.000000 0.000000
vn 1.000000 0.000000 0.000000
vn 1.000000 0.000000 0.000000
vn 1.000000 0.000000 0.000000
vn 0.583342 -0.574520 0.574141
vn 0.583343 -0.574521 0.574141
vn 0.583342 -0.574520 0.574141
vn 0.571259 -0.580180 -0.580563
vn 0.571259 -0.580180 -0.580563
vn 0.571259 -0.580180 -0.580563
vn 0.144996 -0.700985 0.698281
vn 0.140651 -0.701387 0.698766
vn 0.052652 -0.706588 0.705663
vn 0.052652 -0.706588 0.705663
vn 0.214341 -0.002529 0.976756
vn 0.203167 -0.002942 0.979140
vn 0.077731 -0.001061 0.996974
vn 0.077731 -0.001061 0.996974
vn -0.203168 0.002942 -0.979140
vn -0.214341 0.002529 -0.976756
vn -0.077731 0.001061 -0.996974
vn -0.077731 0.001061 -0.996974
vn -0.145534 -0.698220 -0.700935
vn -0.141163 -0.698710 -0.701340
vn -0.052721 -0.705661 -0.706586
vn -0.052721 -0.705661 -0.706586
vn -0.000000 -1.000000 -0.000000
vn -0.000000 -1.000000 -0.000000
vn 0.000000 -1.000000 0.000000
vn 0.000000 -1.000000 0.000000
vn 0.022234 -0.701147 0.712670
vn 0.021496 -0.701131 0.712708
vn -0.091582 -0.696544 0.711646
vn -0.098968 -0.696294 0.710901
vn -0.000000 -1.000000 -0.000000
vn -0.000000 -1.000000 -0.000000
vn 0.000000 -1.000000 -0.000000
vn 0.000000 -1.000000 -0.000000
vn -0.021872 -0.712584 -0.701246
vn -0.021122 -0.712622 -0.701230
vn 0.089568 -0.711623 -0.696829
vn 0.097023 -0.710890 -0.696579
vn -0.033752 -0.012939 -0.999347
vn -0.035357 -0.010556 -0.999319
vn 0.138715 -0.013459 -0.990241
vn 0.136809 -0.016497 -0.990460
vn -0.038303 -0.004587 -0.999256
vn 0.142472 -0.005838 -0.989782
vn -0.004566 -0.000031 -0.999990
vn 0.143227 0.000820 -0.989689
vn 0.084634 0.005154 -0.996399
vn 0.173086 0.005175 -0.984893
vn -0.084634 -0.005154 0.996399
vn 0.004566 0.000031 0.999990
vn -0.143227 -0.000820 0.989689
vn -0.173086 -0.005175 0.984893
vn 0.038303 0.004587 0.999256
vn -0.142472 0.005838 0.989782
vn 0.035357 0.010556 0.999319
vn -0.138715 0.013459 0.990241
vn 0.033752 0.012939 0.999347
vn -0.136809 0.016497 0.990460
vn -0.089673 -0.701621 0.706885
vn -0.080173 -0.702435 0.707218
vn 0.000000 -1.000000 -0.000000
vn 0.000000 -1.000000 -0.000000
vn 0.089104 -0.706904 -0.701674
vn 0.079674 -0.707231 -0.702479
vn 0.130522 -0.004720 -0.991434
vn 0.126697 -0.005748 -0.991925
vn 0.137305 -0.002083 -0.990527
vn 0.138685 0.000294 -0.990337
vn 0.135943 0.002852 -0.990713
vn 0.251525 0.009116 -0.967808
vn 0.129800 0.004985 -0.991528
vn 0.246742 0.011258 -0.969016
vn 0.125267 0.006107 -0.992104
vn 0.171590 0.701305 -0.691902
vn 0.171590 0.701305 -0.691902
vn 0.079674 0.707233 -0.702477
vn 0.089105 0.706906 -0.701673
vn 0.000000 1.000000 -0.000000
vn 0.000000 1.000000 -0.000000
vn 0.000000 1.000000 -0.000001
vn 0.000000 1.000000 -0.000001
vn -0.173868 0.691555 0.701086
vn -0.173868 0.691555 0.701086
vn -0.080173 0.702433 0.707220
vn -0.089674 0.701619 0.706887
vn -0.246742 -0.011258 0.969016
vn -0.251525 -0.009116 0.967808
vn -0.129800 -0.004985 0.991528
vn -0.125266 -0.006107 0.992104
vn -0.135943 -0.002852 0.990713
vn -0.138685 -0.000294 0.990337
vn -0.137305 0.002083 0.990527
vn -0.130522 0.004720 0.991434
vn -0.126697 0.005748 0.991925
vn 0.101715 -0.704386 0.702492
vn 0.090936 -0.704988 0.703365
vn -0.000000 -1.000000 -0.000000
vn -0.000000 -1.000000 -0.000000
vn -0.101928 -0.702474 -0.704372
vn -0.091136 -0.703350 -0.704977
vn -0.130747 0.001455 -0.991415
vn -0.132689 0.001838 -0.991156
vn -0.127320 0.000582 -0.991862
vn -0.126616 -0.000081 -0.991952
vn -0.128012 -0.000813 -0.991772
vn -0.090882 -0.000572 -0.995862
vn 0.001872 0.000862 -0.999998
vn -0.002194 0.707410 -0.706800
vn -0.002194 0.707410 -0.706800
vn 0.000000 1.000000 -0.000001
vn 0.000000 1.000000 -0.000001
vn 0.002196 0.706800 0.707410
vn 0.002196 0.706800 0.707410
vn 0.090882 0.000572 0.995862
vn -0.001872 -0.000862 0.999998
vn 0.128012 0.000813 0.991772
vn 0.126616 0.000080 0.991952
vn 0.127320 -0.000582 0.991862
vn 0.130747 -0.001455 0.991415
vn 0.132689 -0.001838 0.991156
vn 0.172259 -0.698267 0.694802
vn 0.174651 -0.698020 0.694453
vn -0.000000 -1.000000 -0.000000
vn -0.000000 -1.000000 -0.000000
vn -0.173103 -0.694689 -0.698171
vn -0.175514 -0.694336 -0.697921
vn -0.243254 0.003086 -0.969958
vn -0.242913 0.003819 -0.970041
vn -0.247294 0.001575 -0.968939
vn -0.247369 -0.000411 -0.968921
vn -0.247744 -0.001651 -0.968824
vn -0.254531 -0.002844 -0.967060
vn 0.247744 0.001651 0.968824
vn 0.254531 0.002844 0.967060
vn 0.247369 0.000411 0.968921
vn 0.247294 -0.001575 0.968939
vn 0.243254 -0.003086 0.969958
vn 0.242913 -0.003819 0.970041
vn -0.232384 0.001858 -0.972622
vn -0.233358 -0.000868 -0.972391
vn -0.233358 -0.000868 -0.972391
vn 0.233358 0.000868 0.972391
vn 0.233358 0.000868 0.972391
vn 0.232384 -0.001858 0.972622
vn 0.007020 -0.704728 0.709443
vn -0.001816 -0.704929 0.709276
vn 0.010447 0.004223 0.999937
vn 0.007898 0.005151 0.999956
vn 0.062849 0.002246 0.998021
vn 0.122823 0.001343 0.992428
vn -0.062849 -0.002246 -0.998021
vn -0.122823 -0.001343 -0.992428
vn -0.010447 -0.004223 -0.999937
vn -0.007898 -0.005151 -0.999956
vn -0.006974 -0.709428 -0.704744
vn 0.001745 -0.709264 -0.704941
vn -0.000000 -1.000000 0.000000
vn 0.000000 -1.000000 0.000000
vn -0.159403 -0.699656 0.696471
vn -0.149496 -0.700642 0.697676
vn -0.236922 -0.003117 0.971524
vn -0.218213 -0.003362 0.975895
vn -0.284297 -0.002478 0.958733
vn 0.236922 0.003117 -0.971524
vn 0.284296 0.002478 -0.958733
vn 0.218213 0.003363 -0.975895
vn 0.160078 -0.696387 -0.699585
vn 0.150138 -0.697601 -0.700580
vn 0.000000 -1.000000 0.000000
vn 0.000000 -1.000000 0.000000
vn -0.101284 -0.704422 0.702518
vn -0.101284 -0.704422 0.702518
vn -0.145710 -0.002105 0.989325
vn -0.145710 -0.002105 0.989325
vn 0.145710 0.002105 -0.989325
vn 0.145710 0.002105 -0.989325
vn 0.101556 -0.702496 -0.704405
vn 0.101556 -0.702496 -0.704405
vn 0.000000 -1.000000 0.000000
vn 0.000000 -1.000000 0.000000
vn 0.000000 1.000000 0.000000
vn 0.000000 1.000000 0.000000
vn 0.000000 1.000000 0.000000
vn 0.000000 1.000000 0.000000
vn -1.000000 0.000000 0.000000
vn -1.000000 0.000000 0.000000
vn -1.000000 0.000000 0.000000
vn -1.000000 0.000000 0.000000
vn -0.000000 1.000000 0.000000
vn -0.000000 1.000000 0.000000
vn -0.000000 1.000000 0.000000
vn -0.000000 1.000000 0.000000
vn -1.000000 0.000000 0.000000
vn -1.000000 0.000000 0.000000
vn -1.000000 0.000000 0.000000
vn -1.000000 0.000000 0.000000
vn 0.000000 1.000000 0.000000
vn 0.000000 1.000000 0.000000
vn 0.000000 1.000000 0.000000
vn 0.000000 1.000000 0.000000
vn -1.000000 -0.000000 0.000000
vn -1.000000 -0.000000 0.000000
vn -1.000000 -0.000000 0.000000
vn -1.000000 -0.000000 0.000000
vn 0.000000 1.000000 0.000000
vn 0.000000 1.000000 0.000000
vn 0.000000 1.000000 0.000000
vn 0.000000 1.000000 0.000000
vn -1.000000 0.000000 0.000000
vn -1.000000 0.000000 0.000000
vn -1.000000 0.000000 0.000000
vn -1.000000 0.000000 0.000000
vn -1.000000 0.000000 0.000000
vn -1.000000 0.000000 0.000000
vn -1.000000 0.000000 0.000000
vn -1.000000 0.000000 0.000000
vn -1.000000 0.000001 0.000000
vn -1.000000 0.000001 0.000000
vn -1.000000 0.000001 0.000000
vn -1.000000 0.000001 0.000000
vn -1.000000 0.000000 0.000000
vn -1.000000 0.000000 0.000000
vn -1.000000 0.000000 0.000000
vn -1.000000 0.000000 0.000000
vn -1.000000 0.000000 0.000000
vn -1.000000 0.000000 0.000000
vn -1.000000 0.000000 0.000000
vn -1.000000 0.000000 0.000000
vn 1.000000 0.000000 -0.000000
vn 1.000000 0.000000 -0.000000
vn 1.000000 0.000000 -0.000000
vn 1.000000 0.000000 -0.000000
vn 0.000000 1.000000 0.000000
vn 0.000000 1.000000 0.000000
vn 0.000000 1.000000 0.000000
vn 0.000000 1.000000 0.000000
vn 0.000000 1.000000 0.000000
vn 0.000000 1.000000 0.000000
vn 0.000000 1.000000 0.000000
vn 0.000000 1.000000 0.000000
vn 1.000000 0.000001 0.000000
vn 1.000000 0.000001 0.000000
vn 1.000000 0.000001 0.000000
vn 1.000000 0.000001 0.000000
vn 1.000000 -0.000000 -0.000000
vn 1.000000 -0.000000 -0.000000
vn 1.000000 -0.000000 -0.000000
vn 1.000000 -0.000000 -0.000000
vn 0.000000 1.000000 -0.000000
vn 0.000000 1.000000 -0.000000
vn 0.000000 1.000000 -0.000000
vn 0.000000 1.000000 -0.000000
vn 0.000000 -1.000000 0.000000
vn 0.000000 -1.000000 0.000000
vn 0.000000 -1.000000 0.000000
vn 0.000000 -1.000000 0.000000
vn 1.000000 0.000000 -0.000000
vn 1.000000 0.000000 -0.000000
vn 1.000000 0.000000 -0.000000
vn 1.000000 0.000000 -0.000000
vn 0.000000 1.000000 0.000000
vn 0.000000 1.000000 0.000000
vn 0.000000 1.000000 0.000000
vn 0.000000 1.000000 0.000000
vn 1.000000 0.000000 0.000000
vn 1.000000 0.000000 0.000000
vn 1.000000 0.000000 0.000000
vn 1.000000 0.000000 0.000000
vn 0.000000 1.000000 0.000000
vn 0.000000 1.000000 0.000000
vn 0.000000 1.000000 0.000000
vn 0.000000 1.000000 0.000000
vn 1.000000 0.000000 0.000000
vn 1.000000 0.000000 0.000000
vn 1.000000 0.000000 0.000000
vn 1.000000 0.000000 0.000000
s off
g wall3
f 1/1/1 3/2/2 4/7/3 6/3/4
f 2/8/5 1/4/6 9/14/7 10/15/8
f 7/179/9 8/12/10 6/5/11 5/6/12
f 1/4/13 6/9/14 8/13/15 9/14/16
f 1/4/17 2/8/18 3/10/19
f 4/7/20 5/6/21 6/5/22
s 1
f 91/101/23 92/102/24 3/10/25 2/8/26
s 2
f 102/169/27 91/101/28 2/8/29 10/15/30
s 3
f 94/105/31 95/174/32 7/179/33 5/6/34
s 4
f 93/104/35 94/105/36 5/6/37 4/7/38
s 5
f 92/103/39 93/104/40 4/7/41 3/2/42
s 1
f 12/18/43 11/16/44 24/30/45 23/29/46
s 5
f 11/17/47 22/28/48 25/32/49 24/31/50
s 4
f 22/28/51 21/27/52 26/33/53 25/32/54
s 3
f 21/27/55 20/26/56 27/34/57 26/33/58
f 20/26/56 19/25/59 28/35/60 27/34/57
f 19/25/59 18/166/61 29/36/62 28/35/60
f 18/166/61 17/165/63 30/164/64 29/36/62
s 2
f 16/167/65 15/159/66 38/45/67 37/161/68
f 15/159/66 14/20/69 39/46/70 38/45/67
f 14/20/69 13/19/71 40/47/72 39/46/70
f 13/19/71 12/18/73 23/29/74 40/47/72
s 1
f 23/29/46 24/30/45 42/49/75 41/48/76
s 5
f 24/31/50 25/32/49 43/51/77 42/50/78
s 4
f 25/32/54 26/33/53 44/52/79 43/51/80
s 3
f 26/33/58 27/34/57 45/53/81 44/52/82
f 27/34/57 28/35/60 46/54/83 45/53/81
f 28/35/60 29/36/62 47/55/84 46/54/83
f 29/36/62 30/164/64 48/56/85 47/55/84
f 30/164/64 31/162/86 49/57/87 48/56/85
f 31/162/86 32/163/88 50/58/89 49/57/87
s 11
f 32/163/90 33/40/91 51/59/92 50/58/93
s 12
f 33/40/94 34/41/95 52/60/96 51/59/97
s 13
f 34/41/98 35/42/99 53/61/100 52/60/101
s 2
f 35/42/102 36/160/103 54/62/104 53/61/105
f 36/160/103 37/161/68 55/63/106 54/62/104
f 37/161/68 38/45/67 56/64/107 55/63/106
f 38/45/67 39/46/70 57/65/108 56/64/107
f 39/46/70 40/47/72 58/66/109 57/65/108
f 40/47/72 23/29/74 41/48/110 58/66/109
s 1
f 41/48/76 42/49/75 60/68/111 59/67/112
s 5
f 42/50/78 43/51/77 61/70/113 60/69/114
s 4
f 43/51/80 44/52/79 62/71/115 61/70/116
s 3
f 44/52/82 45/53/81 63/72/117 62/71/118
f 45/53/81 46/54/83 64/73/119 63/72/117
f 46/54/83 47/55/84 65/74/120 64/73/119
f 47/55/84 48/56/85 66/75/121 65/74/120
f 48/56/85 49/57/87 67/76/122 66/75/121
f 49/57/87 50/58/89 68/77/123 67/76/122
s 11
f 50/58/93 51/59/92 69/78/124 68/77/125
s 12
f 51/59/97 52/60/96 70/79/126 69/78/127
s 13
f 52/60/101 53/61/100 71/185/128 70/79/129
s 2
f 53/61/105 54/62/104 72/186/130 71/185/131
f 54/62/104 55/63/106 73/82/132 72/186/130
f 55/63/106 56/64/107 74/83/133 73/82/132
f 56/64/107 57/65/108 75/84/134 74/83/133
f 57/65/108 58/66/109 76/85/135 75/84/134
f 58/66/109 41/48/110 59/67/136 76/85/135
s 1
f 59/67/112 60/68/111 78/87/137 77/86/138
s 5
f 60/69/114 61/70/113 79/89/139 78/88/140
s 4
f 61/70/116 62/71/115 80/90/141 79/89/142
s 3
f 62/71/118 63/72/117 81/91/143 80/90/144
f 63/72/117 64/73/119 82/178/145 81/91/143
f 64/73/119 65/74/120 83/177/146 82/178/145
f 65/74/120 66/75/121 84/176/147 83/177/146
f 66/75/121 67/76/122 85/184/148 84/176/147
s 2
f 72/186/130 73/82/132 87/183/149 86/182/150
f 73/82/132 74/83/133 88/180/151 87/183/149
f 74/83/133 75/84/134 89/181/152 88/180/151
f 75/84/134 76/85/135 90/100/153 89/181/152
f 76/85/135 59/67/136 77/86/154 90/100/153
s 1
f 77/86/138 78/87/137 92/102/24 91/101/23
s 5
f 78/88/140 79/89/139 93/104/40 92/103/39
s 4
f 79/89/142 80/90/141 94/105/36 93/104/35
s 3
f 80/90/144 81/91/143 95/174/32 94/105/31
f 81/91/143 82/178/145 96/175/155 95/174/32
f 83/177/146 84/176/147 98/173/156 97/172/157
s 2
f 87/183/149 88/180/151 100/171/158 99/170/159
f 89/181/152 90/100/153 102/169/27 101/168/160
f 90/100/153 77/86/154 91/101/28 102/169/27
s 1
f 104/116/161 103/114/162 11/16/44 12/18/43
s 2
f 105/117/163 104/116/164 12/18/73 13/19/71
f 106/155/165 105/117/163 13/19/71 14/20/69
f 107/158/166 106/155/165 14/20/69 15/159/66
s 3
f 109/157/167 108/156/168 18/166/61 19/25/59
f 110/122/169 109/157/167 19/25/59 20/26/56
f 111/123/170 110/122/169 20/26/56 21/27/55
s 4
f 112/124/171 111/123/172 21/27/52 22/28/51
s 5
f 103/115/173 112/124/174 22/28/48 11/17/47
s 1
f 114/127/175 113/125/176 103/114/162 104/116/161
s 2
f 115/153/177 114/127/178 104/116/164 105/117/163
f 116/154/179 115/153/177 105/117/163 106/155/165
s 3
f 118/151/180 117/152/181 109/157/167 110/122/169
f 119/132/182 118/151/180 110/122/169 111/123/170
s 4
f 120/133/183 119/132/184 111/123/172 112/124/171
s 5
f 113/126/185 120/133/186 112/124/174 103/115/173
s 1
f 122/149/187 121/134/188 113/125/176 114/127/175
s 2
f 123/150/189 122/149/190 114/127/178 115/153/177
s 3
f 125/139/191 124/138/192 118/151/180 119/132/182
s 4
f 126/140/193 125/139/194 119/132/184 120/133/183
s 5
f 121/135/195 126/140/196 120/133/186 113/126/185
s off
f 123/137/197 115/128/198 118/131/199 124/138/200
f 115/128/201 116/129/202 117/130/203 118/131/204
f 116/129/205 106/118/206 109/121/207 117/130/208
f 106/118/209 107/119/210 108/120/211 109/121/212
f 107/119/213 15/21/214 18/24/215 108/120/216
f 15/21/217 16/22/218 17/23/219 18/24/220
f 16/22/221 37/44/222 30/37/223 17/23/224
f 37/44/225 36/43/226 31/38/227 30/37/228
f 36/43/229 35/142/230 32/39/231 31/38/232
f 33/141/233 32/39/234 35/142/235 34/143/236
f 122/136/237 123/137/238 124/138/239 125/139/240
f 121/144/241 122/136/242 125/139/243 126/145/244
f 67/76/245 68/77/246 71/80/247 72/81/248
f 89/99/249 101/112/250 96/107/251 82/92/252
f 72/81/253 86/96/254 85/95/255 67/76/256
f 97/108/257 98/109/258 99/110/259 100/111/260
f 86/96/261 87/97/262 84/94/263 85/95/264
f 87/97/265 99/110/266 98/109/267 84/94/268
f 100/111/269 88/98/270 83/93/271 97/108/272
f 88/98/273 89/99/274 82/92/275 83/93/276
f 102/113/277 10/146/278 7/11/279 95/106/280
f 95/106/281 96/107/282 101/112/283 102/113/284
f 10/146/285 9/147/286 8/148/287 7/11/288
f 70/187/289 71/80/290 68/77/291 69/188/292
