{
  "asset": {
    "generator": "Khronos glTF Blender I/O v1.5.17",
    "version": "2.0"
  },
  "scene": 0,
  "scenes": [
    {
      "name": "Scene",
      "nodes": [
        0
      ]
    }
  ],
  "nodes": [
    {
      "mesh": 0,
      "name": "sphere_gltf"
    }
  ],
  "materials": [
    {
      "doubleSided": true,
      "name": "castle_brick_07",
      "normalTexture": {
        "index": 0
      },
      "pbrMetallicRoughness": {
        "baseColorTexture": {
          "index": 1
        },
        "metallicFactor": 0,
        "metallicRoughnessTexture": {
          "index": 2
        }
      }
    }
  ],
  "meshes": [
    {
      "name": "Sphere.001",
      "primitives": [
        {
          "attributes": {
            "POSITION": 0,
            "NORMAL": 1,
            "TEXCOORD_0": 2
          },
          "indices": 3,
          "material": 0
        }
      ]
    }
  ],
  "textures": [
    {
      "sampler": 0,
      "source": 0
    },
    {
      "sampler": 0,
      "source": 1
    },
    {
      "sampler": 0,
      "source": 2
    }
  ],
  "images": [
    {
      "mimeType": "image/jpeg",
      "name": "castle_brick_07_nor_gl_4k",
      "uri": "textures/castle_brick_07_nor_gl_4k.jpg"
    },
    {
      "mimeType": "image/jpeg",
      "name": "castle_brick_07_diff_4k",
      "uri": "textures/castle_brick_07_diff_4k.jpg"
    },
    {
      "mimeType": "image/jpeg",
      "name": "castle_brick_07_rough_4k",
      "uri": "textures/castle_brick_07_rough_4k.jpg"
    }
  ],
  "accessors": [
    {
      "bufferView": 0,
      "componentType": 5126,
      "count": 53920,
      "max": [
        1.2633014917373657,
        1.2813137769699097,
        1.266435146331787
      ],
      "min": [
        -1.2633240222930908,
        -1.2800732851028442,
        -1.2664419412612915
      ],
      "type": "VEC3"
    },
    {
      "bufferView": 1,
      "componentType": 5126,
      "count": 53920,
      "type": "VEC3"
    },
    {
      "bufferView": 2,
      "componentType": 5126,
      "count": 53920,
      "type": "VEC2"
    },
    {
      "bufferView": 3,
      "componentType": 5123,
      "count": 322170,
      "type": "SCALAR"
    }
  ],
  "bufferViews": [
    {
      "buffer": 0,
      "byteLength": 647040,
      "byteOffset": 0
    },
    {
      "buffer": 0,
      "byteLength": 647040,
      "byteOffset": 647040
    },
    {
      "buffer": 0,
      "byteLength": 431360,
      "byteOffset": 1294080
    },
    {
      "buffer": 0,
      "byteLength": 644340,
      "byteOffset": 1725440
    }
  ],
  "samplers": [
    {
      "magFilter": 9729,
      "minFilter": 9987
    }
  ],
  "buffers": [
    {
      "byteLength": 2369780,
      "uri": "castle_brick_07.bin"
    }
  ]
}